<svg xmlns="http://www.w3.org/2000/svg" width="877" height="322" fill="none" viewBox="0 0 877 322"><path fill="#fff" fill-opacity=".4" d="M778.8 317.338L778.943 316.51C798.372 315.515 875.239 323.308 874.912 299.156C874.553 272.632 847.355 238.63 818.729 199.943C819.292 199.887 820.089 199.01 822.067 197.329C822.685 196.779 814.855 187.144 814.2 186.149C809.731 179.289 810.553 179.351 806.518 182.33C796.76 161.639 825.175 151.665 813.124 118.249C821.696 96.8727 802.618 78.0423 772.268 86.5521C768.56 85.2358 764.549 85.2729 762.59 88.2887C761.354 90.223 757.955 87.0032 751.201 89.1292C746.467 90.6185 747.795 93.6838 744.891 96.3598C743.995 97.1879 737.808 100.581 737.598 106.019C734.96 108.225 732.29 110.611 729.564 113.206C728.615 113.047 727.654 112.967 726.691 112.965C717.6 112.965 710.233 119.85 710.233 128.347C710.234 129.994 710.517 131.628 711.068 133.18C710.555 133.885 710.054 134.595 709.566 135.325L686.144 115.246C687.027 138.668 648.965 158.852 641.555 173.276C640.987 174.395 640.424 175.476 639.874 176.539L604.827 159.235C595.069 152.789 572.401 136.672 571.931 135.862C571.922 135.838 571.922 135.812 571.931 135.788L579.248 133.687C588.592 131.833 605.149 129.312 618.609 127.624C623.59 127.006 651.981 121.494 664.817 117.489C670.378 117.94 680.39 114.98 686.156 115.221C693.294 115.53 700.203 109.239 702.768 103.084C704.004 100.167 707.755 93.8136 712.205 86.6324C718.817 82.4177 732.389 74.6618 729.354 68.6425C728.594 67.1469 726.796 66.8317 724.565 67.1593C727.525 62.549 729.954 58.7607 731.165 56.7645C737.994 45.4984 737.778 43.7865 730.374 43.9348C724.577 44.0337 712.267 44.3551 709.362 44.8C705.438 45.418 704.838 45.9433 698.856 53.588C698.189 54.4408 697.509 55.3349 696.817 56.2701H696.767C683.95 58.3528 679.624 58.9151 672.616 71.4173C670.916 74.4455 669.73 76.4725 668.753 78.2894C635.548 79.3462 581.455 85.7055 566.536 88.1342C541.816 92.1079 533.887 89.0179 516.768 106.254C498.229 124.93 515.65 155.212 525.464 164.29C528.739 167.325 553.842 193.083 568.47 207.247C560.344 207 552.007 206.568 543.429 205.832C494.694 201.655 465.394 197.91 465.394 197.91L465.32 199.238C444.005 167.572 435.761 145.54 402.97 111.816C378.034 86.1566 339.396 100.074 312.983 127.099C280.229 160.619 245.837 211.37 221.791 248.066C171.337 254.803 124.567 259.679 89.5389 259.679C89.5389 261.854 89.5018 264.066 89.4462 266.285C83.8533 266.903 79.7745 267.36 79.7745 267.36C79.4361 268.814 78.958 270.232 78.347 271.594C78.6374 267.781 78.7796 265.302 78.6869 265.16C62.3284 240.224 70.9124 196.494 40.2411 197.397C36.1993 197.514 27.1518 310.41 25.3411 318.605C25.0321 321.027 72.8097 320.793 74.1631 318.815C74.2063 318.753 74.5772 314.99 75.0963 309.483C78.2728 309.73 82.5123 309.978 87.0916 310.219C86.9989 312.691 86.9495 315.058 86.9495 317.338H480.51L480.585 316.986L565.869 315.62L778.8 317.338ZM800.202 259.864C799.998 259.74 792.835 259.246 788.8 258.98C788.917 258.226 788.997 257.701 789.028 257.46C789.028 257.46 755.304 243.011 744.742 235.373C738.798 231.062 732.529 227.216 725.992 223.872C736.745 212.5 749.643 196.327 760.341 182.558C761.818 188.862 766.706 193.651 769.716 200.097C770.012 200.715 771.286 202.909 773.146 206.055C773.609 206.883 774.184 207.835 774.734 208.725C782.848 222.364 798.119 247.943 801.308 257.009C799.343 252.59 797.6 248.975 797.093 248.295L801.883 259.53C801.846 260.389 801.339 260.569 800.202 259.864ZM329.286 231.893L348.221 229.514L328.81 232.468L329.286 231.893Z"/><path fill="#000" d="M779.87 318.611L780.018 317.734C783.868 317.604 789.615 317.733 796.135 317.907C802.433 318.055 809.521 318.228 816.814 318.228C839.253 318.228 863.584 316.596 872.533 307.722C873.708 306.623 874.64 305.289 875.268 303.807C875.896 302.326 876.206 300.729 876.179 299.119C875.851 274.529 853.313 244.309 827.283 209.312C825.07 206.345 822.827 203.323 820.577 200.283C820.855 200.054 821.158 199.788 821.51 199.473C821.863 199.158 822.345 198.738 822.889 198.274C824.038 197.292 823.117 195.895 821.084 193.089C819.768 191.235 818.08 189.091 816.845 187.527C816.103 186.569 815.398 185.673 815.262 185.457C814.743 184.66 814.298 183.961 813.909 183.343C812.142 180.575 811.437 179.425 810.09 179.184C809.064 178.999 808.236 179.487 807.043 180.358C803.823 172.182 806.919 165.761 810.652 158.036C815.497 148.025 820.967 136.69 814.478 118.274C816.56 112.873 817.036 107.428 815.745 102.286C813.52 93.4613 806.475 86.9291 796.364 84.3644C788.948 82.5104 780.815 82.8256 772.262 85.211C770.936 84.7621 769.551 84.5101 768.152 84.4633C765.186 84.42 762.924 85.4953 761.527 87.6398C760.93 87.6829 760.329 87.6308 759.748 87.4853C756.791 86.8634 753.723 87.0145 750.842 87.9241C747.431 88.9994 746.59 90.9275 745.849 92.627C745.472 93.686 744.859 94.6455 744.057 95.4328C743.97 95.5131 743.667 95.7294 743.395 95.921C741.424 97.3238 736.906 100.544 736.406 105.432C734 107.451 731.602 109.597 729.212 111.872C728.393 111.762 727.567 111.707 726.74 111.705C716.97 111.705 709.016 119.176 709.016 128.354C709.017 129.919 709.252 131.475 709.714 132.97C702.842 142.574 699.511 152.208 699.863 161.318C694.802 168.672 695.89 177.491 698.009 184.184C696.866 185.859 695.537 187.589 694.036 189.492C692.182 191.859 690.105 194.535 688.072 197.588L687.417 198.583L641.629 175.952L642.717 173.838C645.294 168.82 652.073 162.776 659.248 156.374C672.362 144.681 687.17 131.475 687.454 116.482C694.635 116.043 701.365 109.801 703.954 103.572C705.123 100.766 708.806 94.549 713.15 87.5471L714.757 86.5397C722.34 81.7873 733.798 74.6 730.504 68.0801C730.162 67.4254 729.652 66.8733 729.026 66.4802C728.401 66.0872 727.682 65.8673 726.944 65.8429C729.342 62.0917 731.227 59.1438 732.265 57.4258C736.554 50.3559 738.253 46.8209 736.987 44.6084C736.016 42.9213 733.742 42.6123 730.374 42.6741C725.541 42.7545 712.322 43.0696 709.189 43.5579C704.708 44.25 703.899 45.1152 697.886 52.8279C697.317 53.5571 696.73 54.3234 696.137 55.1206C683.499 57.1662 678.765 57.9387 671.54 70.8178C670.873 72.0106 670.304 73.0426 669.761 73.9696C669.093 75.1376 668.525 76.1388 668.018 77.0596C633.929 78.2029 579.403 84.797 566.363 86.892C561.221 87.7201 556.784 88.2454 552.872 88.7028C537.96 90.4641 529.746 91.4281 515.897 105.389C510.045 111.278 507.171 118.707 507.356 127.458C507.678 142.796 517.652 158.79 524.66 165.248C525.958 166.447 530.84 171.428 537.088 177.689C550.27 191 559.2 199.937 565.306 205.9C558.242 205.641 551.024 205.227 543.596 204.59C495.447 200.468 465.901 196.711 465.61 196.674L465.116 196.612C459.498 188.157 454.765 180.352 450.105 172.67C438.32 153.228 427.183 134.861 403.922 110.926C394.942 101.656 383.892 96.9901 371.094 96.9716H371.026C352.022 96.9716 330.009 107.898 312.118 126.209C279.438 159.655 245.096 210.257 221.08 246.898C170.769 253.616 124.58 258.406 89.6007 258.406H88.3647V259.672C88.3647 261.477 88.3338 263.3 88.2968 265.136C84.1562 265.574 81.0105 265.939 80.0341 266.056C80.0341 264.82 79.9538 264.635 79.8363 264.462C73.8603 255.365 71.277 243.74 68.7803 232.493C64.6212 213.792 60.6907 196.111 41.2299 196.111C40.9085 196.111 40.6119 196.111 40.2596 196.111C38.7208 196.154 37.3921 196.198 33.7768 226.894C31.7745 243.951 29.63 265.828 27.9058 283.435C26.2125 300.739 24.7478 315.657 24.1607 318.314V318.426C24.1113 318.79 24.1607 319.705 25.4956 320.212C28.2581 321.25 39.4686 321.608 49.1588 321.608H51.5628C73.953 321.466 74.8738 320.094 75.2693 319.507C75.3929 319.316 75.5103 319.143 76.3014 310.855C78.656 311.028 81.746 311.22 85.8309 311.43C85.763 313.463 85.7259 315.441 85.7259 317.35V318.586H457.305H458.652H481.518L481.598 318.216L565.838 316.868L779.87 318.611ZM77.902 292.266C78.7919 282.248 79.3234 275.907 79.62 271.872C80.1886 270.438 80.5965 269.344 80.856 268.516C83.2848 268.232 85.7382 267.954 88.1793 267.694C87.9383 275.401 87.413 283.262 86.8939 290.937C86.4737 297.21 86.072 303.241 85.8495 308.859C82.3331 308.668 79.1009 308.476 76.4682 308.297C76.8267 304.496 77.284 299.286 77.902 292.266ZM90.7688 264.876C90.7688 263.56 90.8182 262.25 90.8244 260.939C125.266 260.828 170.237 256.199 219.202 249.704L222.52 249.265C255.818 244.81 290.877 239.519 325.671 234.229L329.477 233.648L335.039 232.796C344.421 231.366 353.691 229.959 362.849 228.575L365.507 228.173C385.481 225.157 404.787 222.302 422.981 219.781C423.29 220.127 423.599 220.46 423.877 220.757L425.206 219.478C438.523 217.624 451.236 215.992 463.157 214.602L460.568 260.266C454.765 261.063 424.464 263.461 390.116 265.988L385.963 266.291C351.917 268.763 314.775 271.346 294.01 272.57L290.148 272.793C284.302 273.12 280.21 273.306 278.492 273.306C256.603 273.306 231.061 274.455 205.117 275.864L201.972 276.037C194.556 276.445 187.078 276.871 179.674 277.273C160.405 278.373 140.74 279.498 122.256 280.252L121.02 280.301L119.753 280.351C109.346 280.765 99.359 281.043 90.0272 281.136C90.3053 276.55 90.5401 271.952 90.6761 267.404C90.6761 266.977 90.6761 266.557 90.6761 266.168L90.7688 264.876ZM690.167 198.96C692.145 195.981 694.11 193.46 696.013 191.013C697.076 189.653 698.096 188.343 699.029 187.057C700.001 189.541 701.188 191.936 702.576 194.214L702.663 194.158C699.338 197.588 697.212 203.762 695.327 211.308C692.122 210.537 688.894 209.864 685.643 209.287C685.67 207.523 686.079 205.785 686.842 204.195C687.917 202.427 689.048 200.672 690.185 198.96H690.167ZM873.626 299.169C873.654 300.442 873.411 301.707 872.912 302.879C872.414 304.051 871.671 305.104 870.734 305.967C859.61 316.936 819.916 315.972 796.179 315.397C791.235 315.274 786.995 315.175 783.547 315.175C782.422 315.175 781.39 315.175 780.457 315.175H779.746C779.993 313.099 780.481 309.026 781.106 303.965C782.175 295.269 783.633 283.657 784.925 274.257C785.772 268.114 786.55 262.917 787.1 260.105H787.316L788.553 260.192L789.826 260.278C794.071 260.562 798.694 260.896 799.714 261.026C800.017 261.235 800.36 261.381 800.721 261.454C801.082 261.527 801.454 261.527 801.815 261.452C804.485 267.632 807.123 274.158 807.42 275.747L809.892 275.289C809.534 273.343 805.69 263.912 802.42 256.527C802.099 255.6 801.642 254.475 801.03 253.109C799.565 249.852 797.248 245.341 794.145 239.699C789.368 231.003 783.423 220.911 778.794 213.125C780.806 212.859 782.799 212.46 784.758 211.932C794.164 209.546 810.844 203.484 814.082 196.154C814.846 197.122 815.56 198.129 816.22 199.17C816.838 200.11 817.259 200.777 817.945 201.024C820.417 204.318 822.814 207.581 825.2 210.789C851.02 245.489 873.324 275.407 873.645 299.169H873.626ZM411.029 275.11C374.208 277.23 313.385 280.178 284.821 281.29L280.804 281.445C275.538 281.642 271.793 281.747 270.1 281.747C247.469 281.747 223.002 283.231 199.302 284.677L198.56 284.72L196.088 284.868C171.14 286.389 145.511 287.897 122.367 287.606H121.1H119.833H119.333C110.063 287.427 104.272 288.317 98.1044 289.262C95.4161 289.67 92.6475 290.097 89.4524 290.461C89.6007 288.23 89.7552 285.981 89.8974 283.725C99.2663 283.638 109.333 283.354 119.802 282.946L121.038 282.897L122.305 282.841C140.845 282.087 160.535 280.987 179.841 279.863C186.639 279.473 193.437 279.084 200.235 278.707L203.387 278.534C229.961 277.081 256.139 275.876 278.499 275.876C279.524 275.876 282.676 275.722 287.453 275.45L291.359 275.221C311.883 273.985 352.85 271.241 389.541 268.596L394.769 268.219C426.009 265.945 453.176 263.819 460.401 262.88L459.882 272.1C457.305 272.335 453.807 272.372 451.137 272.397C446.984 272.44 443.06 272.477 441.057 273.015C440.062 273.281 433.703 273.763 423.976 274.375C420.2 274.572 415.831 274.832 411.047 275.11H411.029ZM587.641 239.451C588.525 239.451 589.39 239.451 590.261 239.501C593.753 239.6 597.133 239.835 600.316 240.119C607.083 240.78 612.015 240.311 615.661 238.883C616.244 238.663 616.811 238.405 617.36 238.11C617.842 237.862 618.308 237.585 618.757 237.282C625.048 232.956 625.994 224.453 627.199 213.656C627.39 211.926 627.588 210.134 627.817 208.286C627.866 207.866 627.922 207.439 627.978 207.013C628.033 206.586 628.095 206.172 628.157 205.746C628.54 203.008 629.022 200.184 629.665 197.285C630.399 193.965 631.363 190.701 632.551 187.515C633.946 183.802 635.714 180.241 637.829 176.885C637.971 176.657 638.113 176.428 638.267 176.199L638.514 176.366L640.368 177.602L640.097 178.028C637.96 181.368 636.185 184.925 634.8 188.64C632.81 194.172 631.434 199.906 630.697 205.74C630.635 206.16 630.573 206.586 630.518 206.976L630.351 208.242C630.11 210.171 629.9 212.068 629.689 213.922C628.559 224.076 627.564 232.987 621.767 238.16C621.402 238.487 621.019 238.778 620.617 239.093C620.215 239.408 619.709 239.711 619.221 240.002C615.03 242.436 608.974 243.468 600.063 242.597C596.818 242.282 593.363 242.047 589.804 241.979C588.945 241.979 588.079 241.942 587.208 241.936C571.604 241.837 554.349 244.63 543.275 255.143C531.607 266.217 530.704 279.961 536.575 286.852C542.446 293.743 555.733 295.504 575.855 280.196C580.681 276.457 586.152 273.637 591.998 271.878C592.832 271.631 593.66 271.414 594.47 271.217C609.16 267.713 624.029 271.439 638.552 275.092C644.423 276.575 650.195 278.027 655.856 278.96C657.277 279.195 658.692 279.399 660.095 279.578C670.867 280.814 681.107 279.696 690.587 272.626C707.471 260.031 704.752 247.906 700.321 236.102C700.123 235.564 699.913 235.027 699.703 234.483L699.085 232.851L698.936 232.474C697.563 229.161 696.385 225.771 695.408 222.321C694.746 219.926 694.424 217.45 694.45 214.966C694.45 214.546 694.487 214.132 694.524 213.73C694.561 213.329 694.616 212.859 694.684 212.426C694.74 212.117 694.79 211.808 694.858 211.487L695.259 211.58L697.33 212.031C697.262 212.365 697.206 212.698 697.156 213.032C697.089 213.471 697.039 213.91 697.014 214.348C697.014 214.663 697.014 214.966 697.014 215.294C696.965 220.411 699.091 225.855 701.34 231.56C701.686 232.431 702.026 233.309 702.366 234.192C702.57 234.724 702.774 235.255 702.984 235.787C703.194 236.318 703.361 236.831 703.547 237.356C707.656 249.018 709.442 261.792 692.175 274.671C680.903 283.082 668.858 283.645 656.226 281.618C654.799 281.389 653.371 281.129 651.9 280.845C647.333 279.93 642.698 278.769 637.995 277.582C624.029 274.072 609.734 270.481 595.73 273.602C594.89 273.794 594.043 274.01 593.197 274.251C587.477 275.889 582.122 278.604 577.419 282.248C565.776 291.122 556.135 294.491 548.701 294.491C542.397 294.491 537.682 292.074 534.672 288.533C528.127 280.851 528.319 265.902 541.55 253.307C553.305 242.189 571.431 239.297 587.659 239.451H587.641ZM758.752 181.18C758.802 181.551 758.864 181.916 758.938 182.274C748.698 195.438 736.183 211.104 725.689 222.314C716.787 217.868 707.435 214.386 697.793 211.926C699.647 204.658 701.693 198.577 704.739 195.66C705.314 195.555 706.871 195.376 708.509 195.184C719.281 193.942 746.788 190.747 758.771 181.18H758.752ZM771.99 206.617C772.398 207.346 772.936 208.249 773.622 209.361L774.289 210.486C774.635 211.104 775 211.679 775.364 212.29C775.418 212.425 775.493 212.55 775.587 212.661C780.284 220.572 786.266 230.688 791.303 239.779C793.361 243.487 794.961 246.503 796.216 248.963L796.061 249.086C796.512 249.661 798.224 253.307 800.183 257.738C800.307 258.103 800.393 258.399 800.455 258.64C799.769 258.492 797.711 258.3 790.246 257.8C790.246 257.732 790.246 257.67 790.246 257.621L790.363 256.669L789.486 256.292C789.152 256.15 755.774 241.812 745.447 234.347C739.909 230.334 734.091 226.722 728.038 223.538C738.093 212.766 749.748 198.2 759.816 185.309C760.928 188.25 762.665 190.914 764.444 193.639C765.978 195.877 767.352 198.221 768.554 200.653C768.882 201.29 769.994 203.218 772.009 206.617H771.99ZM808.378 156.936C804.392 165.18 800.604 173.004 805.554 183.213L805.263 183.281C805.313 183.485 806.499 185.358 807.952 187.496C807.482 187.824 806.969 188.225 806.376 188.689C801.988 192.106 791.723 200.097 772.503 202.452C771.638 200.969 771.045 199.937 770.872 199.56C769.618 197.016 768.185 194.564 766.583 192.224C764.549 189.103 762.64 186.174 761.738 182.837C761.592 182.304 761.477 181.763 761.391 181.217C761.29 180.604 761.228 179.985 761.206 179.363C761.206 179.005 761.206 178.64 761.206 178.269C761.206 177.825 761.255 177.367 761.311 176.898C761.367 176.428 761.435 176.008 761.521 175.55C762.133 172.771 763.175 170.104 764.611 167.646C765.229 166.534 767.287 164.902 769.821 163.073L770.865 162.325L771.891 161.602L773.09 160.762C774.753 159.6 776.532 158.351 778.325 157.054C779.177 156.423 780.028 155.778 780.877 155.119L781.087 154.959L782.033 154.205C782.366 153.939 782.694 153.667 783.015 153.401L783.534 152.962L783.979 152.579C787.687 149.366 790.957 145.818 792.681 142.011C793.569 140.143 794.019 138.097 793.997 136.029C793.849 129.936 795.851 126.24 797.705 125.381C798.058 125.218 798.45 125.157 798.836 125.206C799.222 125.256 799.586 125.413 799.887 125.659C799.895 125.929 799.973 126.193 800.114 126.424C800.255 126.655 800.453 126.845 800.69 126.975C800.746 127.711 800.783 128.292 800.777 128.49C800.733 130.22 800.616 131.864 800.424 133.434C800.238 134.999 799.962 136.553 799.596 138.087C798.708 141.746 797.215 145.23 795.177 148.395L797.31 149.761C800.251 145.189 802.136 140.019 802.828 134.626C803.008 133.39 803.131 132.055 803.218 130.702C803.261 129.998 803.292 129.281 803.31 128.545C803.31 127.927 803.143 125.733 802.902 122.915C802.902 122.705 802.865 122.495 802.847 122.297C803.36 121.278 804.231 120.888 805.14 120.486C805.43 120.357 805.721 120.221 805.999 120.066C806.332 120.814 806.617 121.426 806.691 121.673V121.716C807.092 122.952 807.432 124.127 807.729 125.288C808.026 126.45 808.248 127.495 808.434 128.57C808.434 128.669 808.434 128.774 808.477 128.873C808.672 130.041 808.808 131.219 808.885 132.402C809.096 135.721 808.815 139.053 808.05 142.29L810.522 142.864C811.834 137.248 811.812 131.402 810.461 125.795C810.213 124.703 809.921 123.589 809.583 122.452C809.447 122.007 809.305 121.556 809.157 121.104C809.157 121.043 809.12 120.981 809.095 120.919C808.965 120.517 808.477 119.417 807.797 117.928V117.86L807.84 117.792C808.203 117.153 808.69 116.594 809.274 116.148C809.478 115.985 809.73 115.894 809.991 115.889C810.442 115.889 811.147 116.507 811.758 118.181C812.197 119.374 812.58 120.536 812.92 121.667C817.697 137.636 812.766 147.852 808.378 156.936ZM711.667 134.546C711.951 134.15 712.236 133.755 712.532 133.359C712.953 132.797 713.379 132.235 713.83 131.672C718.89 125.352 724.734 119.701 731.221 114.857C731.672 114.517 732.098 114.239 732.457 113.93C732.815 113.621 733.353 113.311 733.693 113.058C734.033 112.805 734.391 112.607 734.65 112.44C735.594 111.872 736.531 111.344 737.462 110.858C738.574 112.877 740.039 114.679 741.788 116.179C741.455 117.013 741.17 117.798 740.967 118.546C740.806 119.108 740.676 119.64 740.571 120.153C740.467 120.826 740.409 121.505 740.398 122.186C740.184 124.291 740.718 126.404 741.906 128.156C742.264 128.655 742.678 129.112 743.142 129.515C743.508 129.846 743.901 130.146 744.316 130.412C744.526 130.541 744.73 130.665 744.934 130.776C746.17 136.517 752.498 138.86 755.941 140.139C756.491 140.343 757.14 140.584 757.504 140.757C758.203 145.756 759.513 148.049 761.138 149.347C761.529 149.112 761.941 148.89 762.374 148.68C762.813 148.451 763.27 148.235 763.734 148.062H763.795C766.757 146.804 770.004 146.369 773.192 146.804C776.381 147.24 779.393 148.528 781.909 150.534L782.249 150.812L781.507 151.43L781.272 151.628C780.939 151.906 780.599 152.178 780.259 152.449C777.599 150.318 774.286 149.168 770.878 149.193C769.52 149.196 768.168 149.37 766.855 149.712C766.348 149.843 765.849 150 765.359 150.181C765.143 150.262 764.92 150.342 764.704 150.435C764.488 150.527 764.123 150.701 763.832 150.843C760.529 152.409 757.884 155.09 756.361 158.413C755.565 160.11 755.13 161.953 755.084 163.827C755.039 165.7 755.383 167.563 756.095 169.296C756.828 171.054 757.933 172.633 759.333 173.925C759.204 174.407 759.099 174.877 759.012 175.34C758.926 175.804 758.845 176.304 758.79 176.768C758.734 177.231 758.709 177.565 758.685 177.954C748.432 188.009 719.281 191.402 708.262 192.669C706 192.928 704.863 193.064 704.233 193.188L704.758 192.854C703.178 190.193 701.872 187.379 700.858 184.456C703.868 179.722 705.419 174.938 703.547 168.388C700.599 158.086 703.071 147.116 710.87 135.726C711.111 135.343 711.389 134.954 711.667 134.546ZM349.958 207.649C351.973 208.576 356.941 217.395 361.638 226.189L334.712 230.28L331.956 230.694C339.26 221.937 345.582 213.866 349.958 207.649ZM352.467 206.487C352.547 205.202 350.897 203.317 345.57 197.687C343.154 195.129 339.495 191.254 339.192 190.351L336.72 190.778C336.949 192.119 338.933 194.331 343.753 199.43C345.44 201.21 347.739 203.638 349.019 205.214C348.611 205.381 348.263 205.665 348.017 206.03C343.012 213.168 335.966 222.061 328.204 231.288C312.754 233.636 297.218 235.991 281.811 238.277C284.759 235.187 293.127 224.49 319.948 187.601L322.185 184.511C323.878 182.206 325.423 179.913 326.913 177.713C334.261 166.799 340.064 158.184 355.477 158.184C366.687 158.184 383.732 182.744 396.178 200.678C401.4 208.199 405.998 214.83 409.663 219.088C395.09 221.171 379.906 223.414 364.32 225.781C358.622 215.139 355.087 209.04 352.467 206.487ZM412.654 218.681C408.946 214.682 404.002 207.513 398.236 199.251C384.758 179.833 367.954 155.669 355.452 155.669C338.692 155.669 332.246 165.236 324.787 176.317C323.31 178.511 321.777 180.785 320.121 183.053C319.701 183.621 318.928 184.684 317.871 186.143C288.331 226.745 280.6 236.318 279.314 237.196C279.363 237.162 279.418 237.137 279.475 237.122L279.969 238.555L270.236 239.989C272.708 237.653 280.328 228.074 308.904 188.794C309.949 187.36 310.709 186.322 311.123 185.747L312.89 183.325C322.562 170.013 337.116 149.996 354.346 149.996H355.1C373.671 150.614 395.801 182.07 410.442 202.872C414.49 208.626 418.13 213.786 421.102 217.488C418.309 217.883 415.497 218.273 412.654 218.681ZM88.2906 311.554C88.2906 311.127 88.2906 310.713 88.3277 310.28C88.3647 309.848 88.3647 309.434 88.3771 309.044C88.581 303.989 88.9271 298.613 89.2979 293.026C92.7402 292.643 95.6757 292.198 98.5123 291.759C104.828 290.795 110.285 289.954 119.308 290.134H119.87C120.291 290.134 120.717 290.134 121.137 290.134H122.373C144.974 290.418 169.879 288.997 194.222 287.52L197.466 287.322L198.702 287.241C222.594 285.783 247.296 284.275 270.088 284.275C271.058 284.275 273.555 284.201 277.25 284.071L281.663 283.904C311.481 282.736 388.923 279.133 424.106 276.89C432.603 276.346 438.635 275.883 440.934 275.555C441.209 275.523 441.481 275.473 441.749 275.407C443.437 274.956 447.386 274.918 451.199 274.881C454.684 274.881 457.539 274.795 459.77 274.603L459.696 275.957L459.554 278.472L457.416 316.059H88.1917C88.2041 314.6 88.2411 313.092 88.2906 311.554ZM809.645 181.699C810.452 182.63 811.164 183.638 811.771 184.709C812.166 185.327 812.617 186.038 813.143 186.841C813.328 187.125 813.822 187.768 814.842 189.078C816.35 191.013 819.638 195.258 820.608 196.908L819.829 197.594C819.564 197.829 819.298 198.064 819.063 198.262C817.514 196.169 815.963 194.059 814.41 191.933C813.792 190.024 812.277 188.38 810.943 187.095C810.9 187.054 810.855 187.017 810.807 186.983L810.634 186.742C809.702 185.463 808.863 184.119 808.125 182.719C808.596 182.33 809.106 181.988 809.645 181.699ZM795.74 86.8179C804.905 89.1477 811.301 95.0125 813.285 102.886C814.244 106.876 814.116 111.05 812.914 114.974C812.603 114.51 812.192 114.123 811.71 113.84C811.229 113.558 810.689 113.387 810.133 113.342C809.954 113.327 809.774 113.327 809.595 113.342C809.731 111.383 809.496 109.548 807.809 107.929C804.614 104.839 803.125 101.384 801.809 98.3065C799.615 93.1832 797.544 88.3443 788.596 88.3443H788.089C786.822 88.3443 784.956 88.9623 783.145 89.5803C782.133 89.9369 781.101 90.2361 780.055 90.4764C778.95 88.998 777.548 87.7666 775.939 86.8611C782.966 85.3347 789.646 85.2667 795.74 86.8179ZM700.308 165.699C700.506 166.844 700.766 167.976 701.087 169.092C701.731 171.08 701.954 173.181 701.741 175.26C701.528 177.339 700.885 179.351 699.851 181.168C698.596 176.36 698.158 170.742 700.308 165.699ZM657.586 154.501C649.91 161.349 643.279 167.257 640.486 172.695L639.38 174.852L605.606 158.203C597.448 152.796 579.397 140.133 574.255 136.147C579.866 134.558 599.939 131.271 618.806 128.91C622.082 128.502 635.288 126.018 647.741 123.206C655.886 121.352 661.337 119.936 665.045 118.793C665.397 118.793 665.762 118.793 666.139 118.793C668.976 118.793 672.467 118.212 676.027 117.613C678.969 117.051 681.943 116.674 684.932 116.482C684.605 130.381 670.261 143.198 657.586 154.501ZM670.99 76.9916L671.985 75.2304C672.517 74.2972 673.11 73.2589 673.777 72.0662C679.927 61.0967 683.604 59.7865 694.029 58.0438L695.803 57.7533L696.569 57.6235L697.027 57.5555L697.577 57.4752C698.618 57.3198 699.669 57.2393 700.722 57.2342C704.603 57.2342 706.705 58.4702 706.995 59.5949C707.415 61.2388 704.634 64.1496 697.546 66.6525C697.266 66.7475 697.002 66.8828 696.761 67.0542C694.858 67.1593 692.695 67.3138 690.581 67.5115C690.031 67.561 689.481 67.6166 688.943 67.6784C688.406 67.7402 687.843 67.802 687.312 67.8638C685.727 68.0466 684.154 68.3107 682.596 68.6548C682.398 68.6944 682.21 68.7747 682.044 68.8906C681.878 69.0066 681.738 69.1556 681.632 69.3284C681.783 69.079 682.025 68.8975 682.306 68.8217L682.547 71.3431C682.85 71.3277 683.144 71.234 683.4 71.0712C684.018 70.9352 684.698 70.8054 685.482 70.6818C686.002 70.6015 686.552 70.5212 687.133 70.447C687.713 70.3729 688.214 70.3111 688.783 70.2431C692.85 69.7736 696.938 69.5116 701.031 69.4582C703.503 69.5756 704.121 69.965 704.233 70.2307C704.585 71.0218 703.676 75.0759 699.907 76.7754C698.949 77.208 698.182 77.5417 697.558 77.8136C696.644 77.931 695.086 78.0917 693.479 78.2585L691.947 78.413C688.381 78.7777 685.254 79.1052 682.949 79.4019L682.374 79.476L681.311 79.6305C680.625 79.7356 680.075 79.8406 679.655 79.9395L679.358 80.0137C679.132 80.0727 678.903 80.1201 678.672 80.1558C677.112 80.4231 675.584 80.8497 674.111 81.4289L675.057 83.7773C675.959 83.4169 676.889 83.1297 677.838 82.9183C678.332 82.8009 678.777 82.7205 679.142 82.6525L679.506 82.5784C679.696 82.5456 679.884 82.5023 680.069 82.4486C680.449 82.3487 680.835 82.2703 681.224 82.2137C683.622 81.812 688.48 81.3176 692.206 80.9345L693.238 80.8294L694.511 80.6996C694.632 80.9258 694.806 81.1189 695.018 81.262L695.055 81.2929C695.048 81.8944 694.886 82.4838 694.586 83.0048C694.431 83.3508 694.233 83.7464 693.968 84.2408C693.429 85.1171 692.679 85.844 691.786 86.3544C691.508 86.5316 691.221 86.6946 690.927 86.8426C690.252 87.1879 689.554 87.4873 688.838 87.7387C688.177 87.9797 687.522 88.1898 686.904 88.3567C683.641 88.2825 679.253 90.0438 675.613 91.5517L675.205 91.7186L673.666 92.3366C672.968 92.6209 672.313 92.8681 671.812 93.0288C671.58 93.1116 671.34 93.1716 671.095 93.208H670.805L670.348 93.4737L670.966 94.5181L671.25 95.0249L671.306 95.717C671.441 95.717 671.59 95.68 671.751 95.6491C672.364 95.5126 672.965 95.3266 673.549 95.0928C674.272 94.8209 675.137 94.4749 676.194 94.0299C678.153 93.2203 680.52 92.2315 682.738 91.5579C682.915 91.822 683.158 92.0351 683.443 92.1759C684.735 92.8495 684.679 93.449 684.679 93.7023C684.308 97.2064 673.265 103.504 670.941 104.147C668.779 104.769 666.797 105.9 665.163 107.447C664.064 108.423 663.233 109.663 662.746 111.05C662.629 111.451 662.584 111.869 662.61 112.286C662.62 112.433 662.64 112.58 662.672 112.724C662.429 113.414 662.322 114.145 662.357 114.875C662.097 114.698 661.849 114.504 661.615 114.294C661.279 113.98 660.979 113.63 660.719 113.25C660.428 112.843 660.185 112.403 659.996 111.94C657.963 106.816 661.702 98.5228 663.939 93.5664C664.631 92.0399 665.175 90.8349 665.465 89.9388C667.177 84.6981 668.16 82.2756 669.6 79.5193C669.983 78.7468 670.44 77.9186 670.966 76.9916H670.99ZM728.267 69.2419C730.195 73.0612 722.328 78.7097 716.277 82.6093C719.367 77.6653 722.63 72.6224 725.368 68.3458C726.759 68.2037 727.828 68.42 728.242 69.2419H728.267ZM538.862 175.909C532.62 169.611 527.695 164.636 526.354 163.394C519.704 157.214 510.199 142.005 509.89 127.408C509.723 119.374 512.362 112.576 517.695 107.181C530.921 93.863 538.355 92.9669 553.169 91.2427C557.105 90.7792 561.573 90.2539 566.765 89.3887C582.351 86.8796 633.892 80.8789 666.671 79.6181C665.228 82.7059 664.007 85.8925 663.018 89.1539C662.771 89.914 662.221 91.1253 661.591 92.522C659.193 97.8491 655.176 106.736 657.605 112.879C658.118 114.174 658.931 115.328 659.978 116.247C660.173 116.665 660.448 117.04 660.787 117.353C647.513 120.975 624.202 125.653 618.46 126.37C608.368 127.606 596.973 129.293 587.974 130.813C584.205 131.431 581.294 131.981 579.02 132.439C576.072 132.766 564.651 134.645 558.527 138.365L559.843 140.528C562.76 138.761 567.018 137.438 570.868 136.505C571.029 136.783 571.703 137.741 589.575 150.274C595.415 154.378 599.463 157.171 602.312 159.074L569.459 205.505L569.719 206.049H569.033C560.016 197.273 547.186 184.314 538.862 175.909ZM313.91 127.983C331.338 110.154 352.671 99.5116 371.007 99.5116H371.069C383.163 99.5116 393.601 103.967 402.086 112.7C425.144 136.431 436.206 154.674 447.917 173.987C452.861 182.181 457.947 190.524 464.065 199.634L463.361 212.031C451.001 213.465 437.868 215.176 424.05 217.086C420.997 213.452 417.017 207.816 412.524 201.42C396.697 178.937 375.024 148.148 355.192 147.468C336.294 146.85 320.974 167.862 310.845 181.829L309.083 184.246C308.669 184.808 307.903 185.859 306.865 187.292C277.306 227.926 269.569 237.499 268.283 238.376C268.335 238.347 268.388 238.322 268.444 238.302L269.062 240.156C253.945 242.362 238.99 244.482 224.368 246.46C248.272 210.072 281.922 160.718 313.904 127.983H313.91Z"/><path fill="#000" d="M795.675 30.2406L800.793 34.1482L802.337 35.3818L802.774 35.724C802.942 35.8593 803.22 36.0901 803.427 36.2812C803.873 36.687 804.294 37.1247 804.653 37.6022C805.051 38.1115 805.56 38.6846 805.528 39.3611V39.3531C805.719 40.0216 805.799 40.7459 805.632 41.4383C805.313 42.7435 804.414 43.8815 803.284 44.8127L802.806 45.2265L802.392 45.5766C802.114 45.7995 801.827 46.0144 801.541 46.2054C801.493 46.2372 801.493 46.3486 801.429 46.3964C801.135 46.6431 800.037 47.4548 799.392 48.0358C797.888 49.3808 796.352 50.686 794.45 51.5455C794.155 51.6808 790.447 54.14 789.293 52.7632C788.091 51.3307 790.948 48.1393 791.41 47.8368C792.532 47.1047 793.829 46.5715 794.625 45.4732C795.787 43.8576 797.426 42.8071 798.835 41.486L799.679 40.722C799.766 40.6424 799.854 40.5707 799.925 40.4752C800.084 40.3001 800.076 40.0057 799.901 39.8466C799.822 39.767 799.718 39.7112 799.615 39.6873C799.551 39.6635 799.535 39.6874 799.44 39.6396L798.97 39.3611C798.27 38.9313 797.578 38.4936 796.957 37.9684C795.882 37.069 795.086 35.8195 794.108 34.8008C793.877 34.562 793.36 34.57 793.097 34.3153C792.882 34.1084 792.5 33.7822 792.373 33.4718C792.317 33.3365 792.269 33.1853 792.126 33.1614C791.489 33.034 788.171 29.7153 789.579 28.052C790.948 26.4046 794.187 29.1184 795.675 30.2406Z"/><path fill="#000" d="M830.884 46.937C830.502 47.2554 829.094 48.3298 828.25 49.0859C826.284 50.8209 824.287 52.516 821.915 53.7735C821.549 53.9724 821.008 54.4101 819.854 53.0333C818.652 51.5928 818.302 50.4627 818.891 50.0568C820.315 49.07 821.923 48.2742 823.021 46.9212C824.629 44.9316 826.706 43.507 828.56 41.8038C828.974 41.4218 829.396 41.0477 829.826 40.6817L830.08 40.4589C830.12 40.4271 830.152 40.3873 830.184 40.3475C830.327 40.1803 830.224 39.9256 830.049 39.8301C830.033 39.8142 830.009 39.8062 829.985 39.7983C829.969 39.7983 829.945 39.7903 829.85 39.7107L829.269 39.3208L827.932 38.4454C827.04 37.8644 826.165 37.2674 825.353 36.591C823.952 35.4211 822.83 33.901 821.525 32.6197C821.215 32.3173 820.61 32.2456 820.26 31.9273C819.973 31.6647 819.48 31.2429 819.281 30.8768C819.193 30.7176 819.114 30.5426 818.947 30.4868C818.175 30.2481 818.429 29.6194 819.933 28.1868C820.26 27.8685 820.586 27.375 820.928 27.2477C820.944 27.2397 820.968 27.2318 820.984 27.2239C822.202 26.6111 822.273 27.4148 822.727 27.7491C824.971 29.4044 827.144 31.1633 829.34 32.8824L831.346 34.49C831.68 34.7526 832.022 35.0152 832.373 35.262C832.723 35.5246 833.057 35.7156 833.622 36.1692C834.283 36.7104 835.102 37.3073 835.333 38.1668L835.325 38.1509C835.771 38.9468 836.065 39.8858 835.93 40.809C835.827 41.6845 835.468 42.5201 834.919 43.2444C834.649 43.6105 834.322 43.9526 833.98 44.271L833.224 44.9474C832.508 45.5761 831.792 46.181 831.059 46.6983C830.988 46.7461 830.964 46.8734 830.884 46.937Z"/><path fill="#000" d="M861.497 47.0061C861.194 47.2528 860.08 48.0885 859.42 48.6774C857.884 50.0542 856.316 51.3833 854.374 52.2747C854.071 52.4179 853.65 52.7601 852.496 51.3833C851.294 49.9508 850.864 48.8764 851.334 48.5739C852.48 47.8258 853.793 47.2767 854.613 46.1545C855.806 44.5151 857.478 43.4407 858.918 42.0877L859.412 41.6421L859.467 41.5863L859.475 41.5784L859.499 41.5545L859.539 41.5147C859.595 41.459 859.658 41.4113 859.706 41.3476C859.817 41.2203 859.738 41.0134 859.587 40.9417C859.515 40.9019 859.428 40.886 859.356 40.8939C859.34 40.8939 859.348 40.9019 859.324 40.8939L859.189 40.8144L858.918 40.6473L858.385 40.321C857.669 39.8832 856.968 39.4296 856.332 38.8963C855.233 37.9732 854.422 36.7078 853.419 35.6732C853.18 35.4265 852.655 35.4265 852.392 35.1718C852.169 34.9569 851.787 34.6226 851.652 34.3122C851.596 34.1769 851.541 34.0257 851.405 33.9939C850.753 33.8586 851.047 33.2538 852.504 31.7894C852.822 31.4631 853.164 30.9776 853.467 30.8264C853.483 30.8184 853.506 30.8026 853.522 30.8026C854.644 30.1102 854.621 30.8424 854.987 31.0971C856.769 32.3784 858.472 33.7551 860.207 35.0921L861.783 36.3497C862.046 36.5566 862.308 36.7555 862.595 36.9545C863.088 37.3206 863.59 37.6867 864.044 38.1085C864.537 38.5541 865.158 39.0316 865.245 39.6922V39.6842C865.548 40.297 865.786 40.9974 865.699 41.7057C865.572 43.0428 864.839 44.2047 863.685 45.1836L862.929 45.8361L862.507 46.1864C862.221 46.4172 861.934 46.632 861.64 46.831C861.568 46.8469 861.56 46.9584 861.497 47.0061Z"/><path fill="#000" d="M23.598 36.5022C23.4267 34.3619 22.9794 34.381 22.7035 34.2954C21.0345 33.8601 19.2909 33.7919 17.593 34.0955C16.8602 34.1907 15.6897 34.1811 15.3947 34.2002C15.3281 34.2002 15.271 34.3049 15.2329 34.2954C14.799 34.2623 14.3631 34.2623 13.9291 34.2954C13.853 33.7722 13.8149 33.249 13.7483 32.7163C13.539 31.2419 13.3962 29.7579 13.0917 28.2835C13.0346 27.9887 13.7007 27.6272 12.14 27.4655H12.0734C11.5317 27.4249 10.9878 27.4249 10.4461 27.4655C7.99077 27.5416 7.21992 27.7223 7.59107 28.0838C7.67672 28.1694 7.59106 28.2646 7.51492 28.3597C7.3837 28.5977 7.32421 28.8686 7.34363 29.1397C7.34363 29.3965 7.75281 29.6343 7.72426 29.8721C7.46705 30.8478 7.29513 31.844 7.21038 32.8495C7.34228 33.7408 7.57204 34.6149 7.89555 35.4558C7.40069 35.5129 6.94389 35.5415 6.41096 35.6081C4.62183 35.8269 2.83274 35.9981 1.04361 36.3215C0.681978 36.3786 0.263248 35.7222 0.0348484 37.2727C0.0348484 37.2727 0.0348484 37.3297 0.0348484 37.3393C-0.0116161 37.8805 -0.0116161 38.4246 0.0348484 38.9658C0.0348484 41.4295 0.26322 42.1905 0.720019 41.8195C0.815186 41.7339 0.938879 41.8196 1.05308 41.8957C1.35365 42.0214 1.67992 42.0735 2.00474 42.0478C2.31879 42.0478 2.61381 41.6389 2.89931 41.6579C4.08111 41.9091 5.28066 42.0681 6.48711 42.1335C7.23722 42.0602 7.97737 41.9072 8.69498 41.6769C8.73186 42.4204 8.91968 43.1486 9.24696 43.8172C9.71328 44.6923 9.24693 45.6625 9.15176 46.5947C9.15176 46.9847 10.427 47.1179 12.6634 46.9371C14.8998 46.7564 14.7856 46.3855 14.8713 46.1572C15.328 44.7901 15.4167 43.3269 15.1282 41.9147C15.0991 41.5031 15.0959 41.0901 15.1187 40.6781C16.6604 40.4688 18.2306 40.602 19.7343 39.9266C20.8097 39.4415 21.9707 39.8695 23.0937 39.9266C23.579 40.0597 23.7693 38.7756 23.598 36.5022Z"/><path fill="#000" d="M30.7545 79.1556C30.6308 77.0058 30.3072 77.0153 30.0978 76.9202C28.9374 76.4242 27.6571 76.2787 26.4149 76.5017C26.3341 76.3779 26.2641 76.2474 26.2055 76.1117C25.9987 75.1753 25.9123 74.2163 25.9486 73.258C25.8629 71.698 25.8344 70.1379 25.6536 68.5779C25.6536 68.264 26.3102 67.9406 24.8161 67.6267H24.7495C24.2133 67.5555 23.6723 67.5269 23.1316 67.5411C20.6668 67.4079 19.8864 67.5411 20.2766 67.9406C20.3623 68.0358 20.2766 68.1308 20.172 68.2259C20.0267 68.4675 19.9479 68.7432 19.9436 69.0251C19.9436 69.2914 20.3147 69.5767 20.2671 69.8145C19.9327 70.8164 19.6813 71.844 19.5153 72.887C19.6456 74.0804 19.8458 75.2651 20.1149 76.4351C20.1149 76.7585 20.1149 77.0819 20.172 77.3863C19.5016 77.5291 18.8203 77.615 18.1354 77.6431C16.8126 77.7953 15.4898 77.9 14.1765 78.1378C13.9005 78.1949 13.5959 77.5195 13.4246 79.0225C13.42 79.0444 13.42 79.0671 13.4246 79.089C13.3868 79.6274 13.3868 80.1677 13.4246 80.7061C13.4246 83.1698 13.5864 83.9403 13.929 83.5598C13.9957 83.4742 14.0813 83.5598 14.167 83.6455C14.3722 83.7815 14.6157 83.8481 14.8616 83.8357C15.09 83.8357 15.3089 83.4457 15.5183 83.4837C16.3828 83.7695 17.2716 83.9765 18.1735 84.102C18.9371 84.0075 19.6854 83.8157 20.4003 83.5313C20.4562 83.8299 20.5391 84.1227 20.6478 84.4064C21.0475 85.3576 20.5336 86.3088 20.3337 87.2601C20.2576 87.6596 21.5614 87.9069 23.7978 87.9069C26.0342 87.9069 25.9676 87.5169 26.0723 87.2791C26.6335 85.8865 26.8395 84.3763 26.6718 82.8844V82.8084C27.1117 82.7541 27.5377 82.6186 27.9281 82.4088C28.7179 81.9712 29.5744 82.4089 30.4119 82.5896C30.7355 82.7038 30.8782 81.391 30.7545 79.1556Z"/><path fill="#000" d="M60.4556 54.6225C60.1986 52.4917 59.7513 52.5297 59.5039 52.4631C57.8115 52.0873 56.0573 52.0873 54.3649 52.4631C53.6416 52.5773 52.4616 52.6153 52.1665 52.6438C52.0999 52.6438 52.0428 52.758 52.0048 52.758C51.5334 52.7473 51.062 52.7793 50.5963 52.8532C50.387 51.4929 50.2156 50.1231 49.9111 48.7724C49.8445 48.4775 50.5011 48.1065 48.9594 47.9734H48.8928C48.3524 47.9595 47.8117 47.9849 47.275 48.0494C44.8197 48.1731 44.0488 48.3538 44.42 48.7152C44.5056 48.8008 44.42 48.896 44.3439 49.0007C44.2217 49.2415 44.169 49.5115 44.1916 49.7806C44.1916 50.0374 44.6103 50.2657 44.5913 50.5036C44.3447 51.4828 44.1886 52.4826 44.125 53.4904C44.1471 53.777 44.1981 54.0607 44.2773 54.337L43.2114 54.4893C41.4318 54.7841 39.6331 55.022 37.8535 55.4405C37.4919 55.5261 37.0446 54.8793 36.9019 56.3917C36.9019 56.3917 36.9019 56.4488 36.9019 56.4583C36.8819 57.0019 36.9105 57.5464 36.9875 58.0849C37.1207 60.5391 37.3491 61.3 37.7869 60.8815C37.8821 60.7864 38.0058 60.8816 38.12 60.9386C38.4228 61.0548 38.7498 61.094 39.0716 61.0528C39.3762 61.0528 39.6617 60.6152 39.9472 60.6342C41.1466 60.829 42.3582 60.9403 43.573 60.9671C44.2637 60.871 44.9429 60.7054 45.6001 60.4725C45.838 61.7757 45.6857 63.1169 46.3804 64.3726C46.8658 65.2382 46.447 66.2179 46.3804 67.1596C46.3804 67.5401 47.6652 67.6543 49.8921 67.426C52.1189 67.1977 52.0047 66.8362 52.0904 66.6079C52.5188 65.2336 52.5811 63.7713 52.2712 62.3655C52.1761 61.7662 52.1856 60.8149 52.1665 60.5486C52.1665 60.4915 52.0524 60.4535 52.0619 60.4154C52.1044 60.0202 52.1044 59.6216 52.0619 59.2264C53.6512 58.922 55.288 59.0171 56.8202 58.2751C57.8766 57.752 59.0566 58.123 60.1986 58.1896C60.5793 58.1801 60.722 56.8483 60.4556 54.6225Z"/><path fill="#000" d="M59.0284 9.96306C58.8762 7.81328 58.543 7.83234 58.3337 7.73721C57.1244 7.25922 55.8035 7.1371 54.527 7.38526C54.3717 7.39562 54.216 7.39562 54.0607 7.38526C54.0607 6.98575 54.0036 6.58623 53.9656 6.19622C53.7657 4.45547 53.6325 2.71474 53.347 0.983504C53.2899 0.631549 53.956 0.232032 52.3953 0.0322738H52.3287C51.7871 -0.0107579 51.243 -0.0107579 50.7014 0.0322738C48.2365 0.0322738 47.4657 0.222552 47.8464 0.660118C47.932 0.755241 47.8463 0.869356 47.7607 0.983504C47.6226 1.28055 47.5636 1.6082 47.5894 1.93473C47.5894 2.22961 47.9986 2.53404 47.9701 2.80039C47.7027 3.94254 47.5214 5.10303 47.4276 6.27228C47.4921 7.02875 47.6421 7.77556 47.8749 8.49824C47.2944 8.6219 46.7044 8.63139 46.1239 8.70749C44.782 8.87871 43.4306 8.99281 42.0983 9.25916C41.8223 9.25916 41.4987 8.64091 41.3369 10.1439C41.3416 10.1658 41.3416 10.1884 41.3369 10.2104C41.3005 10.7488 41.3005 11.2891 41.3369 11.8275C41.3369 14.2912 41.5368 15.0617 41.8794 14.6812C41.946 14.5956 42.0412 14.6812 42.1268 14.7668C42.3364 14.9003 42.5831 14.9635 42.8311 14.9475C43.0595 14.9475 43.2879 14.5575 43.4972 14.586C44.3778 14.8644 45.2827 15.0588 46.1999 15.1664C47.0408 15.0472 47.8649 14.8301 48.6553 14.5195C48.8551 16.051 48.6553 17.6014 49.3405 19.1044C49.8068 20.1507 49.3404 21.2637 49.2358 22.3576C49.1787 22.8047 50.5015 23.014 52.7379 22.8713C54.9743 22.7286 54.8696 22.3006 54.9553 22.0342C55.4209 20.4247 55.5217 18.7316 55.2503 17.0782C55.1742 16.3743 55.2027 15.2614 55.1837 14.957C55.1837 14.8904 55.079 14.8334 55.0885 14.7859C55.1172 14.444 55.1172 14.1003 55.0885 13.7585C55.4419 13.6874 55.7821 13.5624 56.0973 13.3876C56.9062 12.9405 57.7817 13.3875 58.6287 13.5397C59.0474 13.5112 59.1807 12.1984 59.0284 9.96306Z"/><path fill="#000" d="M97.3609 34.2289C96.9517 32.1076 96.6377 32.1647 96.4093 32.0886C95.2006 31.7485 93.9178 31.7784 92.7263 32.1743C92.2219 32.2979 91.394 32.355 91.1656 32.393C91.1656 32.393 91.099 32.4977 91.0609 32.4977C90.6333 32.4991 90.2078 32.5566 89.7952 32.6688C89.6905 32.2503 89.6334 31.8318 89.5287 31.4228C89.2432 30.2147 89.0053 28.9971 88.5771 27.8081C88.5009 27.5702 89.1386 27.1993 87.6254 27.2183H87.5588C87.0195 27.2608 86.4827 27.3306 85.9505 27.4275C83.5142 27.751 82.7624 27.9793 83.1811 28.2362C83.2668 28.2932 83.1811 28.3884 83.1145 28.474C83.0065 28.6781 82.9665 28.9114 83.0003 29.1398C83.0003 29.3491 83.4381 29.5107 83.4191 29.701C83.2266 30.5317 83.115 31.3791 83.0859 32.2313C83.3116 33.0424 83.631 33.8245 84.0376 34.5618C83.0859 34.7996 82.1343 35.0184 81.1826 35.3323C80.9352 35.4179 80.545 34.7901 80.5736 36.2835V36.3501C80.6182 36.8868 80.6944 37.4205 80.802 37.9482C81.1636 40.3833 81.4015 41.1348 81.668 40.7068C81.7346 40.6117 81.8298 40.7067 81.9154 40.7638C82.1292 40.874 82.3733 40.9108 82.6101 40.8684C82.829 40.8684 82.9908 40.4214 83.1907 40.4309C83.9615 40.4309 84.7704 40.7448 85.5222 40.7163L85.7316 41.0492C86.255 41.7246 85.8744 42.5806 85.8078 43.3702C85.8078 43.6936 87.102 43.6651 89.3099 43.2751C91.5177 42.8851 91.394 42.5998 91.4606 42.4C91.8233 41.2678 91.8233 40.0506 91.4606 38.9185L91.6224 38.8709C92.7454 38.5379 93.9349 38.6236 94.9722 37.8436C95.6765 37.3014 96.5615 37.6628 97.38 37.7104C97.8177 37.7484 97.7797 36.4262 97.3609 34.2289Z"/><path fill="#000" d="M87.4452 78.2225C86.1692 77.637 84.7587 77.407 83.3626 77.5567C82.7726 77.5567 81.8589 77.4711 81.5925 77.4616C81.5925 77.4616 81.4878 77.5567 81.4498 77.5472C80.6655 77.4278 79.8692 77.4085 79.0801 77.49C79.0801 75.9205 79.1658 74.351 79.0801 72.7339C79.0801 72.3724 79.7748 72.0586 78.2998 71.6305H78.2427C77.7096 71.5206 77.1686 71.4537 76.6248 71.4307C74.179 71.1358 73.3987 71.2215 73.7698 71.7066C73.8459 71.8207 73.7698 71.9253 73.6556 72.0205C73.4887 72.2872 73.3907 72.5912 73.3701 72.9052C73.3701 73.2 73.6937 73.552 73.6366 73.8564C73.235 74.9695 72.9169 76.1109 72.6849 77.2713C72.6655 77.588 72.6655 77.9057 72.6849 78.2225C71.7903 78.2225 70.8958 78.2891 70.0012 78.3842C69.7062 78.3842 69.4207 77.7279 69.1162 79.2118C69.1162 79.2118 69.1162 79.2118 69.1162 79.2783C69.0376 79.8137 69.0026 80.3545 69.0115 80.8955C68.8592 83.3497 68.9544 84.1297 69.3445 83.7492C69.4302 83.6731 69.5159 83.7492 69.611 83.8633C69.8301 84.0057 70.0829 84.0877 70.3438 84.1011C70.5913 84.1011 70.8672 83.7396 71.0861 83.7872C71.7047 83.9203 72.3138 84.1962 72.9323 84.3864C72.9323 84.7764 72.9323 85.1665 72.9323 85.5566C72.9323 87.1451 72.5612 88.7146 73.037 90.3127C73.3701 91.4256 72.7896 92.4814 72.5231 93.5658C72.4089 94.0034 73.7032 94.3744 75.9396 94.5171C78.176 94.6597 78.1189 94.2127 78.2427 93.9559C78.9082 92.4048 79.2172 90.7242 79.1467 89.038C79.1467 88.3245 79.3275 87.2116 79.3561 86.8977C79.3561 86.8406 79.2609 86.7741 79.2704 86.7265C79.4292 85.8224 79.4962 84.9046 79.4703 83.987C79.908 83.987 80.3458 83.987 80.7741 83.987C82.0874 83.8824 83.3911 84.1963 84.7044 83.6446C85.599 83.2546 86.4936 83.7873 87.3881 83.9965C87.7593 84.0821 88.0162 82.7789 88.0448 80.5436C88.0733 78.3082 87.7022 78.3271 87.4452 78.2225Z"/><path fill="#000" d="M121.257 65.0484C120.306 63.146 120.001 63.241 119.773 63.222C118.467 63.2072 117.171 63.4597 115.966 63.964C115.439 64.109 114.901 64.2108 114.358 64.2685C114.358 64.2685 114.282 64.3826 114.244 64.3826C113.731 64.3949 113.221 64.4586 112.721 64.5728C112.521 63.0984 112.369 61.6145 112.083 60.1496C112.017 59.8357 112.683 59.4648 111.132 59.284H111.065C110.527 59.2434 109.986 59.2434 109.447 59.284C106.982 59.3506 106.212 59.5313 106.592 59.9118C106.678 59.9974 106.592 60.102 106.516 60.1972C106.386 60.4458 106.33 60.7263 106.354 61.0057C106.354 61.272 106.764 61.5194 106.735 61.7667C106.477 62.7777 106.305 63.8087 106.221 64.8487C106.24 65.0277 106.268 65.2055 106.307 65.3813C105.355 65.3147 104.403 65.2007 103.452 65.096C103.166 65.096 103.081 64.3255 102.424 65.7048V65.7618C102.216 66.2624 102.044 66.7774 101.91 67.3028C101.111 69.6333 100.958 70.4133 101.548 70.1565C101.672 70.0994 101.748 70.2232 101.824 70.3278C102.043 70.546 102.321 70.6948 102.624 70.7558C102.9 70.8509 103.29 70.518 103.576 70.6131C104.595 71.162 105.683 71.5715 106.811 71.8307C107.068 71.8497 107.325 71.8497 107.582 71.8307C107.582 71.8878 107.582 71.9449 107.582 72.002C107.82 73.3812 107.582 74.789 108.315 76.1303C108.781 77.0815 108.315 78.0327 108.229 78.984C108.229 79.3835 109.504 79.5262 111.741 79.3454C113.977 79.1647 113.863 78.7842 113.949 78.5464C114.403 77.1295 114.488 75.6201 114.196 74.1612C114.12 73.5333 114.139 72.5536 114.12 72.2587C114.12 72.2016 114.015 72.1542 114.015 72.1161C114.058 71.6955 114.058 71.2715 114.015 70.8509C114.272 70.8509 114.529 70.7558 114.777 70.6893C116.242 70.3088 117.822 70.2231 119.078 69.1958C119.925 68.5014 121.067 68.6155 122.114 68.3492C122.552 68.3492 122.247 67.0555 121.257 65.0484Z"/><path fill="#000" d="M173.428 146.103C172.791 144.048 172.315 144.2 172.01 144.2C170.166 144.157 168.327 144.401 166.557 144.923C165.796 145.094 164.568 145.209 164.226 145.247C164.159 145.247 164.102 145.361 164.054 145.361C163.606 145.376 163.158 145.414 162.713 145.475C162.656 144.98 162.627 144.524 162.57 143.991C162.361 142.279 162.208 140.567 161.913 138.864C161.856 138.521 162.513 138.122 160.962 137.913H160.895C160.357 137.87 159.816 137.87 159.277 137.913C156.812 137.913 156.041 138.131 156.422 138.56C156.508 138.655 156.422 138.769 156.346 138.883C156.217 139.163 156.159 139.47 156.175 139.777C156.175 140.063 156.584 140.357 156.565 140.624C156.304 141.75 156.129 142.895 156.041 144.048C156.142 144.932 156.336 145.803 156.622 146.645C155.937 146.693 155.252 146.693 154.566 146.712C152.615 146.769 150.665 146.712 148.695 146.626C148.285 146.626 147.99 145.884 147.41 147.311V147.377C147.244 147.894 147.133 148.426 147.077 148.966C146.563 151.382 146.601 152.172 147.229 151.877C147.362 151.81 147.477 151.934 147.6 152.029C147.926 152.222 148.29 152.342 148.666 152.381C149.028 152.448 149.456 152.086 149.78 152.162C151.143 152.609 152.545 152.927 153.967 153.113C155.144 153.096 156.316 152.946 157.459 152.666C157.439 154.013 157.658 155.353 158.107 156.623C158.573 157.641 158.107 158.754 158.021 159.829C157.973 160.276 159.296 160.457 161.533 160.295C163.769 160.133 163.655 159.715 163.74 159.458C164.198 157.872 164.286 156.203 163.997 154.578C163.921 153.884 163.94 152.79 163.921 152.476C163.921 152.409 163.817 152.362 163.817 152.314C163.817 152.267 163.817 152 163.817 151.848H164.016C165.92 151.468 167.823 151.42 169.622 150.431C170.802 149.746 172.21 149.917 173.543 149.727C174.142 149.594 174.095 148.243 173.428 146.103Z"/><path fill="#000" d="M202.787 170.759C201.997 168.762 201.655 168.857 201.426 168.857C200.054 168.763 198.676 168.924 197.363 169.332C196.794 169.439 196.218 169.499 195.64 169.513C195.592 169.513 195.554 169.618 195.516 169.618C194.699 169.608 193.882 169.649 193.07 169.741C193.07 169.427 193.07 169.114 193.07 168.79C192.956 167.42 192.89 166.06 192.68 164.7C192.68 164.424 193.327 164.129 191.824 163.901H191.757C191.218 163.865 190.678 163.865 190.139 163.901C187.675 163.901 186.904 163.977 187.284 164.329C187.37 164.405 187.284 164.49 187.189 164.576C187.048 164.783 186.975 165.029 186.98 165.28C186.98 165.518 187.361 165.756 187.313 165.965C186.998 166.842 186.766 167.746 186.618 168.666C186.638 169.066 186.705 169.462 186.818 169.846C185.952 169.684 185.086 169.494 184.22 169.294C183.915 169.218 183.906 168.476 183.088 169.76L183.04 169.817C182.777 170.292 182.548 170.785 182.355 171.292C181.298 173.518 181.127 174.288 181.717 174.146C181.841 174.146 181.907 174.241 181.984 174.355C182.193 174.6 182.466 174.781 182.773 174.878C183.049 175.002 183.487 174.726 183.725 174.878C184.74 175.55 185.841 176.081 186.999 176.457C187.184 176.497 187.372 176.522 187.56 176.533C187.522 177.304 187.666 178.073 187.979 178.778C188.398 179.606 187.903 180.471 187.722 181.318C187.646 181.67 188.959 181.86 191.205 181.803C193.451 181.746 193.356 181.403 193.461 181.204C193.993 179.991 194.168 178.651 193.965 177.342C193.946 176.99 193.946 176.638 193.965 176.286C194.469 176.275 194.971 176.23 195.469 176.153C197.039 175.896 198.704 175.934 200.132 174.992C201.083 174.355 202.273 174.545 203.387 174.345C203.815 174.155 203.615 172.842 202.787 170.759Z"/><path fill="#000" d="M227.977 143.03C227.873 140.88 227.368 140.899 227.073 140.804C225.209 140.327 223.269 140.218 221.363 140.481C220.545 140.547 219.27 140.481 218.908 140.481C218.832 140.481 218.765 140.576 218.718 140.576C218.214 140.538 217.708 140.538 217.204 140.576C217.128 140.262 216.986 139.948 216.881 139.625C217.024 139.235 216.662 138.921 216.538 138.569C216.179 137.291 215.94 135.982 215.824 134.659C215.482 132.519 215.206 130.379 214.778 128.257C214.692 127.82 215.32 127.306 213.826 127.068H213.759C213.216 127.032 212.67 127.054 212.132 127.135C209.667 127.24 208.915 127.487 209.353 128.01C209.448 128.134 209.353 128.276 209.296 128.41C209.185 128.776 209.153 129.162 209.201 129.542C209.201 129.903 209.648 130.255 209.648 130.588C209.473 132.014 209.388 133.45 209.391 134.888C209.563 136.524 210.248 138.084 210.562 139.701C210.685 140.329 210.771 140.966 210.847 141.603C210.219 141.603 209.582 141.679 208.944 141.736C206.936 141.917 204.928 142.041 202.929 142.317C202.52 142.317 202.073 141.698 201.759 143.211C201.759 143.211 201.759 143.258 201.759 143.277C201.704 143.815 201.704 144.357 201.759 144.895C201.702 147.358 201.892 148.129 202.406 147.748C202.52 147.663 202.653 147.748 202.777 147.834C203.106 147.967 203.46 148.028 203.814 148.014C204.157 148.014 204.509 147.615 204.823 147.643C206.138 147.922 207.47 148.11 208.811 148.205C209.795 148.13 210.77 147.961 211.723 147.701C211.821 148.706 212.062 149.692 212.437 150.63C212.989 151.895 212.636 153.294 212.598 154.645C212.598 155.206 213.921 155.406 216.138 155.139C218.356 154.873 218.232 154.359 218.299 154.026C218.633 152.001 218.594 149.931 218.185 147.919C218.185 147.653 218.108 147.349 218.08 147.035H218.223C220.031 146.816 221.848 147.035 223.638 146.369C224.846 145.912 226.131 146.369 227.387 146.502C227.815 146.588 228.082 145.313 227.977 143.03Z"/></svg>