<svg xmlns="http://www.w3.org/2000/svg" width="193" height="51" fill="none" viewBox="0 0 193 51"><path fill="#2F2F2F" d="M14.06 16.91C10.76 16.91 7.34 19.49 7.34 24.98V39.19H7.62939e-06V10.92H7.34V14.34H7.56001C8.66992 13.0375 10.0496 11.9918 11.6036 11.2753C13.1576 10.5587 14.8488 10.1884 16.56 10.19C18.3656 10.1104 20.1557 10.5541 21.7151 11.4677C23.2745 12.3813 24.5367 13.726 25.35 15.34H25.58C26.863 13.7314 28.4923 12.433 30.3466 11.5413C32.2009 10.6496 34.2324 10.1878 36.29 10.19C42.12 10.19 47.04 14.11 47.04 22.19V39.19H39.76V23.35C39.76 18.48 36.57 16.91 33.94 16.91C30.58 16.91 27.22 19.49 27.22 24.98V39.19H19.88V23.35C19.88 18.48 16.69 16.91 14.06 16.91Z"/><path fill="#2F2F2F" d="M66 10.53V10.19C74.57 10.19 81 16.02 81 25.09C81 34.16 74.61 39.93 66 39.93V39.59L65.95 39.93C57.38 39.93 51 34.1 51 25.09C51 16.08 57.38 10.19 65.95 10.19L66 10.53ZM65.95 33.26H66C70.32 33.26 73.62 30.13 73.62 25.09C73.62 20.05 70.32 16.86 66 16.86H65.95C61.64 16.86 58.33 19.99 58.33 25.09C58.33 30.19 61.64 33.26 65.95 33.26Z"/><path fill="#2F2F2F" d="M100.01 10.53V10.19C108.58 10.19 114.96 16.02 114.96 25.09C114.96 34.16 108.58 39.93 100.01 39.93V39.59L99.95 39.93C91.38 39.93 85 34.1 85 25.09C85 16.08 91.38 10.19 99.95 10.19L100.01 10.53ZM99.95 33.26H100.01C104.32 33.26 107.62 30.13 107.62 25.09C107.62 20.05 104.32 16.86 100.01 16.86H99.95C95.64 16.86 92.34 19.99 92.34 25.09C92.34 30.19 95.64 33.26 99.95 33.26Z"/><path fill="#2F2F2F" d="M148.97 39.19H141.64V35.77H141.41C140.258 37.1294 138.813 38.2093 137.183 38.9282C135.553 39.6471 133.78 39.9862 132 39.92C124.22 39.92 119 34.09 119 25.08C119 16.07 124.21 10.18 132 10.18C133.78 10.1138 135.553 10.4529 137.183 11.1718C138.813 11.8907 140.258 12.9706 141.41 14.33H141.64V0H148.97V39.19ZM133.97 33.25C138.34 33.25 141.65 30.12 141.65 25.08C141.65 20.04 138.34 16.85 133.97 16.85C129.6 16.85 126.36 19.98 126.36 25.08C126.36 30.18 129.67 33.26 133.97 33.26V33.25Z"/><path fill="#2F2F2F" d="M164.93 40.77L165.66 38.98L153 10.92H160.89L169.12 29.57H169.4L176.91 10.92H184.64L171.43 43.19C169.25 48.68 166.95 50.36 160.9 50.36H156.42V43.64H160.9C163 43.68 164.15 42.78 164.93 40.77Z"/><path fill="#2F2F2F" d="M183 35.28C183 32.48 184.85 30.8 187.65 30.8C190.45 30.8 192.3 32.48 192.3 35.28C192.3 38.08 190.39 39.7 187.65 39.7C184.91 39.7 183 38.02 183 35.28Z"/></svg>