<svg xmlns="http://www.w3.org/2000/svg" width="236" height="123" fill="none" viewBox="0 0 236 123"><mask id="path-1-outside-1_17_682" width="236" height="123" x="0" y="0" fill="#000" maskUnits="userSpaceOnUse"><rect width="236" height="123" fill="#fff"/><path d="M109.072 114.71C116.836 114.681 124.576 114.23 132.291 113.61C146.883 112.363 161.36 109.957 175.397 106.2C182.44 104.385 189.268 102.2 195.732 99.4542C202.154 96.6864 208.228 93.3503 213.249 89.1359C213.755 88.7005 214.252 88.2576 214.708 87.7853L216.009 86.3313L215.909 86.3977C218.669 83.689 221.006 80.6776 222.737 77.4375C224.478 74.2121 225.646 70.7211 226.243 67.1193C227.353 59.9009 226.16 52.3431 223.201 45.4052C221.461 41.3975 219.125 37.589 216.266 34.1496C213.415 30.7249 209.968 27.5734 206.214 24.813C198.665 19.2701 189.691 15.2107 180.22 12.4724C170.723 9.71205 160.738 8.354 150.604 7.94806C140.469 7.53474 130.219 8.05877 119.96 8.99612C113.547 9.54229 102.658 11.1291 102.41 8.62708C102.285 7.32808 103.984 6.02907 107.15 4.88506C110.315 3.74105 114.947 2.75941 120.673 2.19848C134.52 0.862571 148.723 0.404966 162.768 2.08039C169.803 2.87013 176.748 4.30937 183.501 6.24311C186.857 7.26903 190.205 8.34662 193.436 9.68253C195.077 10.2951 196.652 11.048 198.251 11.7417C199.038 12.1108 199.817 12.502 200.596 12.8858C201.375 13.2622 202.162 13.646 202.916 14.0741C211.874 18.842 219.92 25.278 225.638 33.3525C231.314 41.3679 234.653 50.7046 234.976 60.27C235.134 65.0453 234.504 69.887 232.963 74.5221C231.438 79.1646 228.952 83.5856 225.787 87.4679C222.621 91.3723 218.793 94.7822 214.617 97.6828C210.44 100.598 205.949 103.049 201.325 105.167C193.014 108.983 184.239 111.699 175.48 113.943C166.688 116.201 157.747 117.98 148.723 119.286C130.667 121.899 112.287 122.615 94.0404 121.478C85.4722 120.939 76.9289 120.024 68.4601 118.674C59.9168 117.301 51.4563 115.293 43.2858 112.4C39.2006 110.968 35.19 109.285 31.3119 107.337C27.4338 105.403 23.6966 103.159 20.1998 100.591C16.6946 98.0371 13.4877 95.0848 10.6869 91.8004C7.89436 88.516 5.61559 84.833 3.94172 80.9433C1.08289 74.2417 0.262536 66.6986 1.67952 59.6795C3.00535 52.6162 6.27851 46.0399 10.6372 40.2756C15.0456 34.526 20.5644 29.5219 26.8952 25.5289C30.0606 23.5288 33.4167 21.7795 36.9467 20.3108C37.8333 19.9491 38.7283 19.6096 39.6232 19.2701L42.3246 18.377C44.1062 17.7349 45.9624 17.3068 47.7937 16.7975C48.6472 16.5466 49.5421 16.3768 50.4288 16.1923C51.3154 16.0078 52.2104 15.8159 53.097 15.6314C54.8952 15.3214 56.7016 15.0188 58.4998 14.7088C60.3062 14.4874 62.0878 14.1552 63.8528 13.9264C64.7312 13.8083 65.6096 13.6829 66.4714 13.5353C66.9023 13.4615 67.3331 13.3876 67.764 13.3138C68.1949 13.2474 68.6175 13.1884 69.0402 13.1219C70.0873 12.997 71.0206 13.2843 72.0978 13.3212C73.1668 13.3655 74.2523 13.4319 75.3462 13.4393C77.5421 13.4393 79.7545 13.5279 81.9836 13.5648C86.4003 13.7788 90.8253 14.1848 94.521 15.72H94.5293C95.2005 15.8528 95.88 15.9857 96.5595 16.1185L98.5731 16.5835C99.9072 16.8935 101.25 17.1592 102.551 17.4323C108.567 18.5615 112.196 19.8015 113.746 20.7979C115.295 21.8017 114.723 22.6283 112.312 23.4402C111.26 23.8018 111.931 24.8573 109.064 24.4809C104.912 24.3923 100.479 23.5214 96.0374 22.7095C91.6042 21.905 87.0715 20.9529 82.6797 20.6134C71.9404 19.6982 61.0686 20.1558 50.8265 22.68L47.0313 23.7354C45.7718 24.0971 44.562 24.5694 43.319 24.9828C40.8662 25.8389 38.546 26.8796 36.2838 28.0457C31.7677 30.4002 27.6327 33.3377 23.9784 36.6886C20.3241 40.0394 17.2083 43.8479 14.7638 47.9294C12.3193 52.0183 10.5958 56.4246 9.81682 60.9268C9.0379 65.4291 9.21191 70.0199 10.4466 74.3819C11.7227 78.7734 13.8855 82.9509 16.91 86.6486C20.5809 91.2173 25.3871 95.1069 30.7484 98.3397C36.118 101.58 42.0346 104.2 48.1914 106.311C54.3483 108.422 60.7537 110.038 67.2586 111.212L69.7031 111.632L72.1807 112.001C73.838 112.238 75.487 112.503 77.1443 112.71C80.4672 113.101 83.79 113.514 87.1212 113.758C94.4299 114.363 101.763 114.43 109.188 114.673L109.072 114.71Z"/></mask><path fill="#FBFC6E" d="M109.072 114.71C116.836 114.681 124.576 114.23 132.291 113.61C146.883 112.363 161.36 109.957 175.397 106.2C182.44 104.385 189.268 102.2 195.732 99.4542C202.154 96.6864 208.228 93.3503 213.249 89.1359C213.755 88.7005 214.252 88.2576 214.708 87.7853L216.009 86.3313L215.909 86.3977C218.669 83.689 221.006 80.6776 222.737 77.4375C224.478 74.2121 225.646 70.7211 226.243 67.1193C227.353 59.9009 226.16 52.3431 223.201 45.4052C221.461 41.3975 219.125 37.589 216.266 34.1496C213.415 30.7249 209.968 27.5734 206.214 24.813C198.665 19.2701 189.691 15.2107 180.22 12.4724C170.723 9.71205 160.738 8.354 150.604 7.94806C140.469 7.53474 130.219 8.05877 119.96 8.99612C113.547 9.54229 102.658 11.1291 102.41 8.62708C102.285 7.32808 103.984 6.02907 107.15 4.88506C110.315 3.74105 114.947 2.75941 120.673 2.19848C134.52 0.862571 148.723 0.404966 162.768 2.08039C169.803 2.87013 176.748 4.30937 183.501 6.24311C186.857 7.26903 190.205 8.34662 193.436 9.68253C195.077 10.2951 196.652 11.048 198.251 11.7417C199.038 12.1108 199.817 12.502 200.596 12.8858C201.375 13.2622 202.162 13.646 202.916 14.0741C211.874 18.842 219.92 25.278 225.638 33.3525C231.314 41.3679 234.653 50.7046 234.976 60.27C235.134 65.0453 234.504 69.887 232.963 74.5221C231.438 79.1646 228.952 83.5856 225.787 87.4679C222.621 91.3723 218.793 94.7822 214.617 97.6828C210.44 100.598 205.949 103.049 201.325 105.167C193.014 108.983 184.239 111.699 175.48 113.943C166.688 116.201 157.747 117.98 148.723 119.286C130.667 121.899 112.287 122.615 94.0404 121.478C85.4722 120.939 76.9289 120.024 68.4601 118.674C59.9168 117.301 51.4563 115.293 43.2858 112.4C39.2006 110.968 35.19 109.285 31.3119 107.337C27.4338 105.403 23.6966 103.159 20.1998 100.591C16.6946 98.0371 13.4877 95.0848 10.6869 91.8004C7.89436 88.516 5.61559 84.833 3.94172 80.9433C1.08289 74.2417 0.262536 66.6986 1.67952 59.6795C3.00535 52.6162 6.27851 46.0399 10.6372 40.2756C15.0456 34.526 20.5644 29.5219 26.8952 25.5289C30.0606 23.5288 33.4167 21.7795 36.9467 20.3108C37.8333 19.9491 38.7283 19.6096 39.6232 19.2701L42.3246 18.377C44.1062 17.7349 45.9624 17.3068 47.7937 16.7975C48.6472 16.5466 49.5421 16.3768 50.4288 16.1923C51.3154 16.0078 52.2104 15.8159 53.097 15.6314C54.8952 15.3214 56.7016 15.0188 58.4998 14.7088C60.3062 14.4874 62.0878 14.1552 63.8528 13.9264C64.7312 13.8083 65.6096 13.6829 66.4714 13.5353C66.9023 13.4615 67.3331 13.3876 67.764 13.3138C68.1949 13.2474 68.6175 13.1884 69.0402 13.1219C70.0873 12.997 71.0206 13.2843 72.0978 13.3212C73.1668 13.3655 74.2523 13.4319 75.3462 13.4393C77.5421 13.4393 79.7545 13.5279 81.9836 13.5648C86.4003 13.7788 90.8253 14.1848 94.521 15.72H94.5293C95.2005 15.8528 95.88 15.9857 96.5595 16.1185L98.5731 16.5835C99.9072 16.8935 101.25 17.1592 102.551 17.4323C108.567 18.5615 112.196 19.8015 113.746 20.7979C115.295 21.8017 114.723 22.6283 112.312 23.4402C111.26 23.8018 111.931 24.8573 109.064 24.4809C104.912 24.3923 100.479 23.5214 96.0374 22.7095C91.6042 21.905 87.0715 20.9529 82.6797 20.6134C71.9404 19.6982 61.0686 20.1558 50.8265 22.68L47.0313 23.7354C45.7718 24.0971 44.562 24.5694 43.319 24.9828C40.8662 25.8389 38.546 26.8796 36.2838 28.0457C31.7677 30.4002 27.6327 33.3377 23.9784 36.6886C20.3241 40.0394 17.2083 43.8479 14.7638 47.9294C12.3193 52.0183 10.5958 56.4246 9.81682 60.9268C9.0379 65.4291 9.21191 70.0199 10.4466 74.3819C11.7227 78.7734 13.8855 82.9509 16.91 86.6486C20.5809 91.2173 25.3871 95.1069 30.7484 98.3397C36.118 101.58 42.0346 104.2 48.1914 106.311C54.3483 108.422 60.7537 110.038 67.2586 111.212L69.7031 111.632L72.1807 112.001C73.838 112.238 75.487 112.503 77.1443 112.71C80.4672 113.101 83.79 113.514 87.1212 113.758C94.4299 114.363 101.763 114.43 109.188 114.673L109.072 114.71Z"/><path stroke="#FBFC6E" d="M109.072 114.71C116.836 114.681 124.576 114.23 132.291 113.61C146.883 112.363 161.36 109.957 175.397 106.2C182.44 104.385 189.268 102.2 195.732 99.4542C202.154 96.6864 208.228 93.3503 213.249 89.1359C213.755 88.7005 214.252 88.2576 214.708 87.7853L216.009 86.3313L215.909 86.3977C218.669 83.689 221.006 80.6776 222.737 77.4375C224.478 74.2121 225.646 70.7211 226.243 67.1193C227.353 59.9009 226.16 52.3431 223.201 45.4052C221.461 41.3975 219.125 37.589 216.266 34.1496C213.415 30.7249 209.968 27.5734 206.214 24.813C198.665 19.2701 189.691 15.2107 180.22 12.4724C170.723 9.71205 160.738 8.354 150.604 7.94806C140.469 7.53474 130.219 8.05877 119.96 8.99612C113.547 9.54229 102.658 11.1291 102.41 8.62708C102.285 7.32808 103.984 6.02907 107.15 4.88506C110.315 3.74105 114.947 2.75941 120.673 2.19848C134.52 0.862571 148.723 0.404966 162.768 2.08039C169.803 2.87013 176.748 4.30937 183.501 6.24311C186.857 7.26903 190.205 8.34662 193.436 9.68253C195.077 10.2951 196.652 11.048 198.251 11.7417C199.038 12.1108 199.817 12.502 200.596 12.8858C201.375 13.2622 202.162 13.646 202.916 14.0741C211.874 18.842 219.92 25.278 225.638 33.3525C231.314 41.3679 234.653 50.7046 234.976 60.27C235.134 65.0453 234.504 69.887 232.963 74.5221C231.438 79.1646 228.952 83.5856 225.787 87.4679C222.621 91.3723 218.793 94.7822 214.617 97.6828C210.44 100.598 205.949 103.049 201.325 105.167C193.014 108.983 184.239 111.699 175.48 113.943C166.688 116.201 157.747 117.98 148.723 119.286C130.667 121.899 112.287 122.615 94.0404 121.478C85.4722 120.939 76.9289 120.024 68.4601 118.674C59.9168 117.301 51.4563 115.293 43.2858 112.4C39.2006 110.968 35.19 109.285 31.3119 107.337C27.4338 105.403 23.6966 103.159 20.1998 100.591C16.6946 98.0371 13.4877 95.0848 10.6869 91.8004C7.89436 88.516 5.61559 84.833 3.94172 80.9433C1.08289 74.2417 0.262536 66.6986 1.67952 59.6795C3.00535 52.6162 6.27851 46.0399 10.6372 40.2756C15.0456 34.526 20.5644 29.5219 26.8952 25.5289C30.0606 23.5288 33.4167 21.7795 36.9467 20.3108C37.8333 19.9491 38.7283 19.6096 39.6232 19.2701L42.3246 18.377C44.1062 17.7349 45.9624 17.3068 47.7937 16.7975C48.6472 16.5466 49.5421 16.3768 50.4288 16.1923C51.3154 16.0078 52.2104 15.8159 53.097 15.6314C54.8952 15.3214 56.7016 15.0188 58.4998 14.7088C60.3062 14.4874 62.0878 14.1552 63.8528 13.9264C64.7312 13.8083 65.6096 13.6829 66.4714 13.5353C66.9023 13.4615 67.3331 13.3876 67.764 13.3138C68.1949 13.2474 68.6175 13.1884 69.0402 13.1219C70.0873 12.997 71.0206 13.2843 72.0978 13.3212C73.1668 13.3655 74.2523 13.4319 75.3462 13.4393C77.5421 13.4393 79.7545 13.5279 81.9836 13.5648C86.4003 13.7788 90.8253 14.1848 94.521 15.72H94.5293C95.2005 15.8528 95.88 15.9857 96.5595 16.1185L98.5731 16.5835C99.9072 16.8935 101.25 17.1592 102.551 17.4323C108.567 18.5615 112.196 19.8015 113.746 20.7979C115.295 21.8017 114.723 22.6283 112.312 23.4402C111.26 23.8018 111.931 24.8573 109.064 24.4809C104.912 24.3923 100.479 23.5214 96.0374 22.7095C91.6042 21.905 87.0715 20.9529 82.6797 20.6134C71.9404 19.6982 61.0686 20.1558 50.8265 22.68L47.0313 23.7354C45.7718 24.0971 44.562 24.5694 43.319 24.9828C40.8662 25.8389 38.546 26.8796 36.2838 28.0457C31.7677 30.4002 27.6327 33.3377 23.9784 36.6886C20.3241 40.0394 17.2083 43.8479 14.7638 47.9294C12.3193 52.0183 10.5958 56.4246 9.81682 60.9268C9.0379 65.4291 9.21191 70.0199 10.4466 74.3819C11.7227 78.7734 13.8855 82.9509 16.91 86.6486C20.5809 91.2173 25.3871 95.1069 30.7484 98.3397C36.118 101.58 42.0346 104.2 48.1914 106.311C54.3483 108.422 60.7537 110.038 67.2586 111.212L69.7031 111.632L72.1807 112.001C73.838 112.238 75.487 112.503 77.1443 112.71C80.4672 113.101 83.79 113.514 87.1212 113.758C94.4299 114.363 101.763 114.43 109.188 114.673L109.072 114.71Z" mask="url(#path-1-outside-1_17_682)"/></svg>