<?xml version="1.0" encoding="utf-8"?>
<!-- Generator: Adobe Illustrator 26.4.1, SVG Export Plug-In . SVG Version: 6.00 Build 0)  -->
<svg version="1.1" id="Layer_1" xmlns="http://www.w3.org/2000/svg" xmlns:xlink="http://www.w3.org/1999/xlink" x="0px" y="0px"
	 viewBox="0 0 187 187" style="enable-background:new 0 0 187 187;" xml:space="preserve">
<style type="text/css">
	.st0{fill:#505052;}
	.st1{fill:#CFE09B;}
	.st2{fill:#FFFFFF;}
	.st3{fill:none;stroke:#006633;stroke-width:4;stroke-linecap:round;stroke-linejoin:round;stroke-miterlimit:10;}
</style>
<path class="st1" d="M172.8,48.3c-0.2-0.4-0.5-0.8-0.7-1.3c0,0,0,0,0,0c0.2,0.3,0.4,0.6,0.6,1c0.1,0.2,0.2,0.4,0.4,0.7H173
	c-0.2-0.3-0.3-0.6-0.5-0.9C172.6,48,172.7,48.1,172.8,48.3 M9.2,54.4c-0.2,0.4-0.3,0.8-0.5,1.1c-0.3,0.7-0.7,1.5-1,2.2
	C7.8,57.5,8,57.2,8.1,57c-0.1,0.3-0.2,0.6-0.3,0.8c-0.3,0.7-0.5,1.3-0.8,2c-1.8,4.9-3.3,9.9-4.2,15c-1.1,5.3-1.7,11-1.7,16.8
	c0-0.1,0-0.2-0.1-0.2c0,0,0,0.1-0.1,0.2c0-4.9,0.5-9.8,1.3-14.7C3.3,70.7,5,64.6,7.3,58.5c0.3-0.8,0.6-1.6,1-2.3
	c0.5-1.1,1-2.2,1.6-3.3c-0.1,0.2-0.2,0.3-0.2,0.5C9.5,53.7,9.4,54.1,9.2,54.4 M14.2,138.7c0.2,0.4,0.5,0.8,0.7,1.3c0,0,0,0,0,0
	c-0.2-0.3-0.4-0.6-0.6-1c-0.1-0.2-0.2-0.4-0.4-0.7l0.1,0c0.2,0.3,0.3,0.6,0.5,0.9C14.4,139,14.3,138.9,14.2,138.7 M177.8,132.6
	c0.2-0.4,0.3-0.8,0.5-1.1c0.3-0.7,0.7-1.5,1-2.2c-0.1,0.3-0.2,0.5-0.4,0.8c0.1-0.3,0.2-0.6,0.3-0.8c0.3-0.7,0.5-1.3,0.8-2
	c1.8-4.9,3.3-9.9,4.2-15c1.1-5.3,1.7-11,1.7-16.8c0,0.1,0,0.2,0.1,0.2c0,0,0-0.1,0.1-0.2c0,4.9-0.5,9.8-1.3,14.7
	c-1.1,6.1-2.8,12.2-5.1,18.3c-0.3,0.8-0.6,1.6-1,2.3c-0.5,1.1-1,2.2-1.6,3.3c0.1-0.2,0.2-0.3,0.2-0.5
	C177.5,133.3,177.6,132.9,177.8,132.6 M169.3,44.8c0,0,0,0-0.6-1.1C168.9,44,169.1,44.3,169.3,44.8 M17.7,142.2c0,0,0,0,0.6,1.1
	C18.1,143,17.9,142.7,17.7,142.2 M162.2,31.1c0.5,1,2.6,3.5,5.7,7.9c0,0,0.2,0.3,0.5,0.7c-3-4.2-6.1-7.4-8-9.2
	c-1.1-1-0.3,0.1-0.2,0.4c-0.2-0.1,0.4,0.6,1.4,2c0.5,0.7,1.2,1.5,1.9,2.4c0.7,0.9,1.5,2,2.4,3.1c1,1.3,1.9,2.7,2.8,3.8
	c1.4,2.1,2.7,4.3,3.9,6.5l-0.1,0c0-0.1-0.1-0.1-0.1-0.2c-0.6-1.1-1.2-2.1-2.5-4.2c0,0,0,0,0,0.2c-0.1-0.1-0.3-0.5-0.7-1
	c-0.4-0.6-0.9-1.3-1.4-2.1c-0.5-0.8-0.8-1.1-1.3-1.8c-0.5-0.6-1.2-1.6-2.6-3.4l1.3,1.8l-1.1-1.6l0.2,0.5l-0.5-0.8l-0.1-0.1
	c-0.1-0.1-0.2-0.2-0.5-0.5c0,0,0,0-2.3-3.1c-0.2-0.2-0.7-0.7-2-2c0,0-0.4-0.3-0.6-0.6c0,0-0.1,0-1.2-1.1c0,0,0,0,0,0.1
	c0.3,0.4,0.3,0.4,0.3,0.5c0,0,0.3,0.4,0.8,1c0.5,0.6,0.7,0.7,2.4,2.7c-0.2-0.2-0.3-0.3-0.5-0.5c-0.5-0.3-0.5-0.3,1.4,2.6
	c0,0,0.3,0.4,0.8,1.1c0.5,0.7,1.2,1.7,2.1,2.9c1.1,1.4,1.5,2.2,2.1,3c0.5,0.8,1.2,1.6,2.2,3.4c0,0,0.5,0.8,1.3,2.1
	c0.3,0.5,0.4,0.8,0.5,1.1l-0.1,0c-0.2-0.3-0.4-0.6-0.6-0.9c-1-1.5-1.2-1.7-0.5-0.4c-1.2-1.4-0.9-0.6,0,1.3l-0.2,0
	c-0.1-0.1-0.2-0.2-0.2-0.2c-3.8-6.4-8.4-12.4-13.9-17.9c-9.3-9.4-20.1-16.3-31.6-20.8c0.6,0.2,1.1,0.4,1.6,0.6
	c1.3,0.5,2.2,0.8,2.3,0.8c0.1-0.1-0.6-0.4-1.8-1c-1.2-0.5-2.8-1.2-4.7-1.9c0.6,0.2,1.2,0.4,1.8,0.7c0.6,0.2,1.1,0.4,0.9,0.3
	c-0.2-0.1-1-0.4-1.6-0.7c-1.1-0.4-2.2-0.7-3.4-1.1c-1.1-0.4-2.2-0.7-3.4-1c-10.3-2.9-21-4-31.6-3.1c-10.6,0.9-21,3.6-30.6,8.2
	c10.3-5,21.6-7.9,33.2-8.5c11.6-0.7,23.4,1,34.5,4.8c-0.5-0.1-0.5-0.1,0,0.1c0.5,0.2,1.4,0.5,1.9,0.7c0.5,0.2,0.5,0.1,0-0.1
	c0,0,0,0,0,0C135,13,146,20,155.1,29c0.5,0.5,1,0.9,1,0.9c0,0-0.5-0.5-1.1-1.1c-7.6-7.5-16.5-13.5-26-17.9c-9.6-4.4-19.9-7-30.2-7.8
	c-5.2-0.4-10.4-0.4-15.5,0.1C78.2,3.7,73.1,4.6,68.2,6c-4.9,1.4-9.7,3.1-14.3,5.3c-4.6,2.2-8.9,4.8-13,7.7c-1.8,1.2-3.5,2.6-5.3,4h0
	c-0.6,0.4-1.8,1.2-3.3,2.5c5.3-4.8,11.2-8.9,17.5-12.3c6.3-3.4,13-5.9,19.9-7.7c11.6-2.9,23.8-3.4,35.7-1.6c1.7,0.3,3.1,0.5,3.2,0.5
	c0.1-0.1-1.3-0.4-3.1-0.7c-1.5-0.2-2.9-0.4-4.4-0.6l-4.4-0.4c2.4,0.1,4,0.1,4.2,0c0.2-0.1-1-0.3-3.1-0.6
	c13.1,0.8,25.9,4.4,37.3,10.4c0.7,0.4,1,0.5,0.8,0.4c-0.2-0.1-0.9-0.6-1.6-0.9C117.7,3.3,98.8,0,80.7,2.2c-3.6,0.4-7.1,1-10.6,1.8
	c-3.5,0.9-7,1.8-10.4,3.1c-3.4,1.2-6.8,2.7-10.1,4.4c-3.3,1.8-6.6,3.6-9.8,5.9c-9.3,6.5-17.1,14.5-23.1,23.5c-1.5,2.3-2.9,4.6-4.2,7
	l-0.2,0c3.5-6.4,7.7-12.4,12.6-17.7c5.2-5.7,11.1-10.7,17.5-14.9c6.4-4.1,13.3-7.6,20.5-9.9c7.2-2.4,14.7-4,22.3-4.5
	c3.8-0.3,7.6-0.3,11.4-0.2c3.8,0.3,7.6,0.6,11.4,1.3c15,2.6,29.5,9.1,41.7,18.7c0.4,0.3,0.8,0.6,1.1,0.9c0.4,0.3,0.7,0.6,1,0.8
	c0.6,0.5,1.2,1,1.6,1.3c0.9,0.7,1.4,1.1,1.3,0.9c-0.1-0.2-0.9-0.9-2-1.9c-0.5-0.5-1.2-1.1-1.9-1.7c-0.7-0.6-1.5-1.2-2.3-1.8
	c-5.9-4.6-12.3-8.3-18.9-11.3c-6.6-2.9-13.5-5.1-20.5-6.4c-7-1.3-14.2-1.8-21.4-1.5c-7.2,0.3-14.4,1.5-21.5,3.6
	C61.2,5.2,56.4,7,51.9,9.2c-4.5,2.2-8.8,4.7-12.8,7.6C31,22.6,23.9,29.7,17.7,38.2c-2.2,3.1-4.2,6.3-6,9.7l-0.1,0
	c-0.6,1-1.1,2.1-1.6,3.1c-2.2,4.2-4.3,9.1-5.9,14.5c-1.6,5.4-2.9,11.3-3.5,17.4c0,0.4-0.1,0.8-0.1,1.2c-0.2,1.6-0.4,4.2-0.4,7.1
	c-0.1,1.2,0,2.7,0,3.6c-0.1,4,0.2,8.4,0.9,13.2c0.2,1.2,0.3,2.4,0.6,3.6c0.3,1.2,0.5,2.5,0.8,3.7c0.3,1.2,0.6,2.5,1,3.8
	c0.3,1.3,0.8,2.6,1.2,3.9c-0.3-1-0.6-2-0.9-3c-0.3-1-0.5-2.1-0.8-3.1c0.4,1.5,0.8,3,1.3,4.5c0.5,1.5,1,3.1,1.6,4.7
	c-0.1-0.4-0.2-0.8-0.3-1.2c1.7,5.1,4.3,11,7.4,16.1c3.1,5.2,6.5,9.5,9,12.3c2.6,2.7,3.5,3.5,3,2.5c-0.5-1-2.6-3.5-5.7-7.9
	c0,0-0.2-0.3-0.5-0.7c3,4.2,6.1,7.4,8,9.2c1.1,1,0.3-0.1,0.2-0.4c0.2,0.1-0.4-0.6-1.4-2c-0.5-0.7-1.2-1.5-1.9-2.4
	c-0.7-0.9-1.5-2-2.4-3.1c-1-1.3-1.9-2.7-2.8-3.8c-1.4-2.1-2.7-4.3-3.9-6.5h0.1c0,0.1,0.1,0.1,0.1,0.2c0.6,1.1,1.2,2.1,2.5,4.2
	c0,0,0,0,0-0.2c0.1,0.1,0.3,0.5,0.7,1c0.4,0.6,0.9,1.3,1.4,2.1c0.5,0.8,0.8,1.1,1.3,1.8c0.5,0.6,1.2,1.6,2.6,3.4l-1.3-1.8l1.1,1.6
	l-0.2-0.5l0.5,0.8l0.1,0.1c0.1,0.1,0.2,0.2,0.5,0.5c0,0,0,0,2.3,3.1c0.2,0.2,0.7,0.7,2,2c0,0,0.4,0.3,0.6,0.6c0,0,0.1,0,1.2,1.1
	c0,0,0,0,0-0.1c-0.3-0.4-0.3-0.4-0.3-0.5c0,0-0.3-0.4-0.8-1c-0.5-0.6-0.7-0.7-2.4-2.7c0.2,0.2,0.3,0.3,0.5,0.5
	c0.5,0.3,0.5,0.3-1.4-2.6c0,0-0.3-0.4-0.8-1.1c-0.5-0.7-1.2-1.7-2.1-2.9c-1.1-1.4-1.5-2.2-2.1-3c-0.5-0.8-1.2-1.6-2.2-3.4
	c0,0-0.5-0.8-1.3-2.1c-0.3-0.5-0.4-0.8-0.5-1.1h0.1c0.2,0.3,0.4,0.6,0.6,0.9c1,1.5,1.2,1.7,0.5,0.4c1.2,1.4,0.9,0.6,0-1.3l0.2,0
	c0.1,0.1,0.2,0.2,0.2,0.2c3.8,6.4,8.4,12.4,13.9,17.9c9.3,9.4,20.1,16.3,31.6,20.8c-0.6-0.2-1.1-0.4-1.6-0.6
	c-1.3-0.5-2.2-0.8-2.3-0.8c-0.1,0.1,0.6,0.4,1.8,1c1.2,0.5,2.8,1.2,4.7,1.9c-0.6-0.2-1.2-0.4-1.8-0.7c-0.6-0.2-1.1-0.4-0.9-0.3
	c0.2,0.1,1,0.4,1.6,0.7c1.1,0.4,2.2,0.7,3.4,1.1c1.1,0.4,2.2,0.7,3.4,1c10.3,2.9,21,4,31.6,3.1c10.6-0.9,21-3.6,30.6-8.2
	c-10.3,5-21.6,7.9-33.2,8.5c-11.6,0.7-23.4-1-34.5-4.8c0.5,0.1,0.5,0.1,0-0.1c-0.5-0.2-1.4-0.5-1.9-0.7c-0.5-0.2-0.5-0.1,0,0.1
	c0,0,0,0,0,0C52,174,41,167,31.9,158c-0.5-0.5-1-0.9-1-0.9c0,0,0.5,0.5,1.1,1.1c7.6,7.5,16.5,13.5,26,17.9c9.6,4.4,19.9,7,30.2,7.8
	c5.2,0.4,10.4,0.4,15.5-0.1c5.1-0.5,10.2-1.4,15.1-2.8c4.9-1.4,9.7-3.1,14.3-5.3c4.6-2.2,8.9-4.8,13-7.7c1.8-1.2,3.5-2.6,5.3-4l0,0
	c0.6-0.4,1.8-1.2,3.3-2.5c-5.3,4.8-11.2,8.9-17.5,12.3c-6.3,3.4-13,5.9-19.9,7.7c-11.6,2.9-23.8,3.4-35.7,1.5
	c-1.7-0.3-3.1-0.5-3.2-0.5c-0.1,0.1,1.3,0.4,3.1,0.7c1.5,0.2,2.9,0.4,4.4,0.6l4.4,0.4c-2.4-0.1-4-0.1-4.2,0c-0.2,0.1,1,0.3,3.1,0.6
	c-13.1-0.8-25.9-4.4-37.3-10.4c-0.7-0.4-1-0.5-0.8-0.4c0.2,0.1,0.9,0.6,1.6,0.9c16.6,8.7,35.4,12,53.5,9.7c3.6-0.4,7.1-1,10.6-1.8
	c3.5-0.9,7-1.8,10.4-3.1c3.4-1.2,6.8-2.7,10.1-4.4c3.3-1.8,6.6-3.6,9.8-5.9c9.3-6.5,17.1-14.5,23.1-23.5c1.5-2.3,2.9-4.6,4.2-7h0.2
	c-3.5,6.4-7.7,12.4-12.6,17.7c-5.2,5.7-11.1,10.7-17.5,14.9c-6.4,4.1-13.3,7.6-20.5,9.9c-7.2,2.4-14.7,4-22.3,4.5
	c-3.8,0.3-7.6,0.3-11.4,0.2c-3.8-0.3-7.6-0.6-11.4-1.3c-15-2.6-29.5-9.1-41.7-18.7c-0.4-0.3-0.8-0.6-1.1-0.9c-0.4-0.3-0.7-0.6-1-0.8
	c-0.6-0.5-1.2-1-1.6-1.3c-0.9-0.7-1.4-1.1-1.3-0.9c0.1,0.2,0.9,0.9,2,1.9c0.5,0.5,1.2,1.1,1.9,1.7c0.7,0.6,1.5,1.2,2.3,1.8
	c5.9,4.6,12.3,8.3,18.9,11.3c6.6,2.9,13.5,5.1,20.5,6.4c7,1.3,14.2,1.8,21.4,1.5c7.2-0.3,14.4-1.5,21.5-3.6
	c5.1-1.5,9.8-3.4,14.4-5.6c4.5-2.2,8.8-4.7,12.8-7.6c8.1-5.7,15.2-12.8,21.4-21.4c2.2-3.1,4.2-6.3,6-9.6l0.1,0
	c0.6-1,1.1-2.1,1.6-3.1c2.2-4.2,4.3-9.1,5.9-14.5c1.6-5.4,2.9-11.3,3.5-17.4c0-0.4,0.1-0.8,0.1-1.2c0.2-1.6,0.4-4.1,0.4-7.1
	c0.1-1.2,0-2.7,0-3.6c0.1-4-0.2-8.4-0.9-13.2c-0.2-1.2-0.3-2.4-0.6-3.6c-0.3-1.2-0.5-2.5-0.8-3.7c-0.3-1.2-0.6-2.5-1-3.8
	c-0.3-1.3-0.8-2.6-1.2-3.9c0.3,1,0.6,2,0.9,3c0.3,1,0.5,2.1,0.8,3.1c-0.4-1.5-0.8-3-1.3-4.5c-0.5-1.5-1-3.1-1.6-4.7
	c0.1,0.4,0.2,0.8,0.3,1.2c-1.7-5.1-4.3-11-7.4-16.1c-3.1-5.2-6.5-9.5-9-12.3C162.6,30.9,161.7,30.2,162.2,31.1"/>
<path class="st3" d="M104.2,58.3L89.5,72.9l-8.1-8 M65.8,44.4v14.1c0,17.2,9.9,33.4,26.8,44.2c16.9-10.8,26.8-27,26.8-44.2V44.4
	c-16.5-9.5-36.8-9.6-53.4-0.1L65.8,44.4z M82.9,146.7v-7.1c0,0-36.4,0-36.4,0v7.1 M79.3,139.6l-0.2-11.7c-0.1-5.6-2.4-11.2-6.7-14.8
	c-0.3-0.3-0.6-0.5-0.9-0.7c-1.4-1-3-2.2-4.7-3.3l-0.6-0.5c-5.6-4.9-10.6-10.4-14.8-16.4c-0.9-1.3-2.3-2.2-3.8-2.4
	c-1.3-0.2-2.7,0-3.8,0.6c-0.2,0.1,0.2-0.1,0,0l-0.6,0.4c-2.6,1.8-2,5.4-0.6,7.7l8.9,12.8c0,0-0.5,6.3,6,11 M43.9,87.9
	c-3-7.5-3.8-18.8-3.8-18.8c-0.4-4-1-11.4-5-13.1c-1.5-0.7-3.3,0.2-3.6,1.9c0,0-3.1,15.4-1.6,44.1c0,0.8,1.4,6.6,1.9,7.2l17.1,21.6
	c0.7,0.7,1.1,1.7,1.1,2.7v6.2 M102,146.7v-7.1c0,0,36.4,0,36.4,0v7.1 M105.6,139.6l0.2-11.7c0.1-5.6,2.4-11.2,6.7-14.8
	c0.3-0.3,0.6-0.5,0.9-0.7c1.4-1,3-2.2,4.7-3.3l0.6-0.5c5.6-4.9,10.6-10.4,14.8-16.4c0.9-1.3,2.3-2.2,3.8-2.4c1.3-0.2,2.6,0,3.8,0.6
	c0.2,0.1-0.2-0.1,0,0l0.6,0.4c2.7,1.9,2,5.4,0.6,7.7l-8.9,12.8c0,0,0.5,6.3-6,11 M141.1,90.3c3-7.5,3.6-21.2,3.6-21.2
	c0.4-4,1-11.4,5-13.1c1.5-0.7,3.3,0.2,3.6,1.9c0,0,3.1,15.4,1.6,44.1c0,0.8-1.4,6.6-1.9,7.2L136,130.7c-0.7,0.7-1.1,1.7-1.1,2.7v6.2
	"/>
</svg>
